{"glyphs":{"0":{"ha":897,"x_min":71,"x_max":828,"o":"m 637 20 q 598 0 637 20 q 449 -19 560 -19 q 261 20 338 -19 q 144 135 185 60 q 88 300 104 211 q 71 507 71 389 q 88 714 71 625 q 144 878 104 803 q 261 994 185 954 q 449 1035 338 1035 q 637 994 560 1035 q 754 878 714 954 q 811 714 794 803 q 828 507 828 625 q 811 300 828 389 q 754 135 794 211 q 637 20 714 60 m 299 219 q 319 173 299 219 q 449 126 339 126 q 599 219 558 126 q 640 507 640 313 q 599 794 640 701 q 449 888 558 888 q 331 840 374 888 q 273 714 288 793 q 258 474 258 635 q 299 219 258 313 z "},"1":{"ha":897,"x_min":179,"x_max":774,"o":"m 179 828 l 179 938 q 424 1014 342 956 l 572 1014 l 572 147 l 774 147 l 774 0 l 182 0 l 182 147 l 383 147 l 383 828 l 179 828 z "},"2":{"ha":897,"x_min":94,"x_max":793,"o":"m 450 1033 q 694 956 610 1033 q 778 749 778 879 q 740 599 778 669 q 628 449 701 529 l 350 147 l 793 147 l 793 0 l 94 0 l 94 133 l 464 535 q 562 653 532 608 q 592 755 592 699 q 553 849 592 811 q 438 886 514 886 q 269 731 278 886 l 107 754 q 450 1033 131 1033 z "},"3":{"ha":897,"x_min":82,"x_max":796,"o":"m 426 128 q 611 275 611 128 q 413 433 611 433 l 310 433 l 310 569 l 414 569 q 555 611 513 569 q 597 728 597 653 q 553 845 597 804 q 426 886 510 886 q 263 729 271 886 l 100 751 q 439 1033 121 1033 q 694 951 606 1033 q 783 731 783 868 q 633 506 783 576 q 796 263 796 440 q 698 59 796 138 q 435 -19 600 -19 q 183 46 269 -19 q 82 247 96 111 l 244 268 q 426 128 261 128 z "},"4":{"ha":897,"x_min":28,"x_max":807,"o":"m 700 0 l 518 0 l 518 214 l 28 214 l 28 350 l 424 1014 l 700 1014 l 700 361 l 807 361 l 807 214 l 700 214 l 700 0 m 518 361 l 518 840 l 239 361 l 518 361 z "},"5":{"ha":897,"x_min":119,"x_max":818,"o":"m 454 126 q 587 174 543 126 q 631 303 631 221 q 561 435 631 386 q 308 483 492 483 l 136 483 l 171 1014 l 754 1014 l 754 867 l 328 867 l 313 635 l 374 635 q 710 546 601 635 q 818 297 818 457 q 724 72 818 163 q 454 -19 631 -19 q 119 289 138 -19 l 282 303 q 454 126 290 126 z "},"6":{"ha":897,"x_min":88,"x_max":825,"o":"m 464 886 q 318 809 360 886 q 271 576 276 732 q 490 603 389 603 q 825 306 825 603 q 736 65 825 149 q 456 -19 647 -19 q 88 464 88 -19 q 171 890 88 746 q 464 1033 254 1033 q 803 740 785 1033 l 640 724 q 464 886 632 886 m 449 464 q 271 440 357 464 q 321 197 276 267 q 464 126 365 126 q 642 306 642 126 q 449 464 642 464 z "},"7":{"ha":897,"x_min":94,"x_max":792,"o":"m 94 867 l 94 1014 l 792 1014 l 792 886 l 408 0 l 207 0 l 588 867 l 94 867 z "},"8":{"ha":897,"x_min":81,"x_max":818,"o":"m 81 264 q 229 504 81 429 q 94 740 94 574 q 185 951 94 868 q 449 1033 276 1033 q 713 951 622 1033 q 804 740 804 868 q 671 514 804 588 q 818 264 818 442 q 718 60 818 140 q 449 -19 618 -19 q 181 60 281 -19 q 81 264 81 140 m 269 268 q 315 163 269 203 q 449 122 361 122 q 583 163 536 122 q 631 273 631 204 q 600 384 631 342 q 494 439 569 426 l 400 453 q 269 268 269 425 m 449 892 q 407 892 449 892 q 323 847 364 892 q 282 732 282 801 q 312 625 282 663 q 418 575 342 588 l 496 563 q 586 622 556 578 q 617 734 617 667 q 576 847 617 801 q 449 892 535 892 z "},"9":{"ha":897,"x_min":71,"x_max":810,"o":"m 428 126 q 572 197 531 126 q 621 431 614 267 q 407 404 519 404 q 150 486 229 404 q 71 707 71 568 q 172 940 71 846 q 458 1033 272 1033 q 727 906 644 1033 q 810 542 810 779 q 793 303 810 401 q 735 131 776 206 q 429 -19 653 -19 q 88 269 103 -19 l 249 288 q 428 126 257 126 m 260 715 q 260 678 260 715 q 305 594 260 642 q 446 546 350 546 q 621 567 542 546 q 578 810 617 733 q 448 886 540 886 q 308 838 356 886 q 260 715 260 789 z "}," ":{"ha":382,"x_min":0,"x_max":0,"o":""},"!":{"ha":414,"x_min":104,"x_max":310,"o":"m 303 45 q 301 35 303 45 q 275 7 299 25 q 208 -11 251 -11 q 141 7 164 -11 q 113 45 118 25 q 108 93 108 65 q 111 137 108 121 q 123 171 114 153 q 153 198 132 189 q 207 207 174 207 q 263 198 240 207 q 294 171 285 189 q 308 103 308 142 q 303 45 308 65 m 104 1014 l 310 1014 l 310 761 l 263 290 l 151 290 l 104 761 l 104 1014 z "},"\"":{"ha":578,"x_min":67,"x_max":511,"o":"m 333 1014 l 511 1014 l 511 922 l 475 649 l 369 649 l 333 922 l 333 1014 m 67 1014 l 244 1014 l 244 922 l 208 649 l 103 649 l 67 922 l 67 1014 z "},"#":{"ha":1131,"x_min":61,"x_max":1069,"o":"m 576 -106 l 635 217 l 392 217 l 333 -106 l 146 -106 l 204 217 l 61 217 l 88 363 l 231 363 l 282 650 l 139 650 l 165 796 l 308 796 l 368 1118 l 556 1118 l 496 796 l 739 796 l 799 1118 l 986 1118 l 926 796 l 1069 796 l 1043 650 l 900 650 l 849 363 l 993 363 l 967 217 l 822 217 l 764 -106 l 576 -106 m 469 650 l 418 363 l 661 363 l 713 650 l 469 650 z "},"$":{"ha":875,"x_min":92,"x_max":800,"o":"m 358 438 q 160 529 222 458 q 97 729 97 600 q 163 933 97 858 q 378 1019 229 1007 l 378 1171 l 504 1171 l 504 1019 q 713 936 650 1007 q 776 731 776 865 l 613 718 q 575 837 613 799 q 447 875 538 875 q 320 839 357 875 q 283 728 283 803 q 401 593 283 608 l 524 576 q 800 278 800 540 q 504 -7 800 15 l 504 -157 l 378 -157 l 378 -7 q 157 75 222 4 q 92 282 92 146 l 256 294 q 297 173 256 214 q 436 132 338 132 q 575 169 535 132 q 615 278 615 206 q 479 418 615 397 l 358 438 z "},"%":{"ha":1356,"x_min":47,"x_max":1272,"o":"m 444 -92 l 742 1021 l 860 1021 l 561 -92 l 444 -92 m 1222 65 q 1197 27 1222 65 q 1042 -11 1172 -11 q 862 65 911 -11 q 813 281 813 140 q 862 498 813 421 q 1042 575 911 575 q 1222 498 1172 575 q 1272 281 1272 421 q 1222 65 1272 140 m 972 282 q 972 233 972 282 q 986 146 972 185 q 1042 107 1000 107 q 1099 146 1085 107 q 1113 282 1113 185 q 1099 417 1113 379 q 1042 456 1085 456 q 986 417 1000 456 q 972 282 972 379 m 457 517 q 432 480 457 517 q 276 442 407 442 q 97 517 146 442 q 47 733 47 593 q 97 951 47 874 q 276 1028 146 1028 q 457 951 407 1028 q 507 733 507 874 q 457 517 507 593 m 207 735 q 207 686 207 735 q 221 599 207 638 q 277 560 235 560 q 333 599 319 560 q 347 735 347 638 q 333 870 347 832 q 277 908 319 908 q 221 870 235 908 q 207 735 207 832 z "},"&":{"ha":896,"x_min":54,"x_max":907,"o":"m 408 885 q 301 847 333 885 q 268 736 268 808 q 300 619 268 664 q 388 575 332 575 l 403 575 l 403 446 q 281 408 321 446 q 240 285 240 369 q 281 165 240 201 q 415 128 322 128 q 548 168 508 128 q 588 293 588 208 l 588 446 l 499 446 l 499 575 l 907 575 l 907 446 l 751 446 l 751 314 q 738 165 751 222 q 688 63 725 107 q 582 -1 651 18 q 401 -21 513 -21 q 138 58 221 -21 q 54 271 54 136 q 108 434 54 368 q 250 522 161 500 q 129 611 176 549 q 82 756 82 674 q 156 958 82 882 q 383 1033 231 1033 q 605 983 535 1033 q 694 824 675 933 l 536 774 q 408 885 518 885 z "},"'":{"ha":311,"x_min":67,"x_max":244,"o":"m 67 1014 l 244 1014 l 244 922 l 208 649 l 103 649 l 67 922 l 67 1014 z "},"(":{"ha":442,"x_min":51,"x_max":429,"o":"m 429 39 l 429 -92 q 181 -8 261 -92 q 75 197 99 75 q 51 438 51 314 q 58 632 51 561 q 88 781 64 703 q 151 908 111 858 q 261 989 190 957 q 429 1021 332 1021 l 429 890 q 308 827 347 890 q 260 691 269 764 q 249 572 251 618 q 247 465 247 526 q 249 358 247 404 q 258 260 251 313 q 276 170 264 207 q 308 103 289 133 q 429 39 347 39 z "},")":{"ha":442,"x_min":13,"x_max":390,"o":"m 13 890 l 13 1021 q 261 939 181 1021 q 367 733 343 854 q 390 492 390 615 q 384 297 390 368 q 354 149 378 226 q 291 22 331 71 q 181 -60 251 -28 q 13 -92 110 -92 l 13 39 q 133 102 94 39 q 181 238 172 165 q 192 357 190 311 q 194 464 194 403 q 192 571 194 525 q 184 669 190 617 q 165 759 178 722 q 133 828 153 796 q 13 890 94 890 z "},"*":{"ha":774,"x_min":33,"x_max":740,"o":"m 297 1082 l 475 1082 l 475 950 l 414 801 l 358 801 l 297 950 l 297 1082 m 33 769 l 83 918 l 210 876 l 335 783 l 317 731 l 160 726 l 33 769 m 251 407 l 117 508 l 194 621 l 326 703 l 371 668 l 332 518 l 251 407 m 657 508 l 522 407 l 442 518 l 401 668 l 447 701 l 579 621 l 657 508 m 690 918 l 740 769 l 614 726 l 457 729 l 440 783 l 563 876 l 690 918 z "},"+":{"ha":806,"x_min":119,"x_max":686,"o":"m 119 378 l 119 506 l 339 506 l 339 725 l 467 725 l 467 506 l 686 506 l 686 378 l 467 378 l 467 158 l 339 158 l 339 378 l 119 378 z "},",":{"ha":314,"x_min":26,"x_max":251,"o":"m 90 -25 q 76 34 90 -7 q 63 100 63 75 q 65 140 63 125 q 76 172 68 156 q 146 207 94 207 q 220 190 197 207 q 247 153 243 172 q 251 103 251 133 q 75 -192 251 -51 l 26 -135 q 90 -25 90 -74 z "},"-":{"ha":661,"x_min":86,"x_max":575,"o":"m 86 378 l 86 506 l 575 506 l 575 378 l 86 378 z "},".":{"ha":325,"x_min":63,"x_max":263,"o":"m 248 25 q 243 16 248 25 q 217 -2 239 7 q 157 -11 196 -11 q 95 7 118 -11 q 67 45 72 25 q 63 93 63 65 q 65 137 63 121 q 78 171 68 153 q 161 207 94 207 q 247 171 231 207 q 263 108 263 142 q 260 58 263 74 q 248 25 257 43 z "},"/":{"ha":494,"x_min":-11,"x_max":506,"o":"m -11 -147 l 318 1076 l 506 1076 l 176 -147 l -11 -147 z "},":":{"ha":325,"x_min":63,"x_max":263,"o":"m 248 25 q 243 16 248 25 q 217 -2 239 7 q 157 -11 196 -11 q 95 7 118 -11 q 67 45 72 25 q 63 93 63 65 q 65 137 63 121 q 78 171 68 153 q 161 207 94 207 q 247 171 231 207 q 263 108 263 142 q 260 58 263 74 q 248 25 257 43 m 248 576 q 243 567 248 576 q 217 549 239 558 q 157 540 196 540 q 95 558 118 540 q 67 597 72 576 q 63 644 63 617 q 65 688 63 672 q 78 722 68 704 q 161 758 94 758 q 247 722 231 758 q 263 659 263 693 q 260 610 263 625 q 248 576 257 594 z "},";":{"ha":314,"x_min":26,"x_max":257,"o":"m 90 -25 q 76 34 90 -7 q 63 100 63 75 q 65 140 63 125 q 76 172 68 156 q 146 207 94 207 q 220 190 197 207 q 247 153 243 172 q 251 103 251 133 q 75 -192 251 -51 l 26 -135 q 90 -25 90 -74 m 242 576 q 238 567 242 576 q 212 549 233 558 q 151 540 190 540 q 90 558 113 540 q 62 597 67 576 q 57 644 57 617 q 60 688 57 672 q 72 722 63 704 q 156 758 89 758 q 242 722 225 758 q 257 659 257 693 q 254 610 257 625 q 242 576 251 594 z "},"<":{"ha":806,"x_min":124,"x_max":682,"o":"m 124 360 l 124 521 l 682 760 l 682 618 l 240 440 l 682 263 l 682 121 l 124 360 z "},"=":{"ha":806,"x_min":119,"x_max":686,"o":"m 119 528 l 119 656 l 686 656 l 686 528 l 119 528 m 119 228 l 119 356 l 686 356 l 686 228 l 119 228 z "},">":{"ha":806,"x_min":124,"x_max":682,"o":"m 682 521 l 682 360 l 124 121 l 124 263 l 564 440 l 124 618 l 124 760 l 682 521 z "},"?":{"ha":650,"x_min":28,"x_max":639,"o":"m 377 25 q 373 16 377 25 q 347 -2 368 7 q 286 -11 325 -11 q 224 7 247 -11 q 197 45 201 25 q 192 93 192 65 q 194 137 192 121 q 206 171 197 153 q 290 207 225 207 q 378 171 358 207 q 392 108 392 142 q 389 58 392 74 q 377 25 386 43 m 28 793 q 115 970 39 907 q 332 1033 190 1033 q 556 948 474 1033 q 639 747 639 863 q 562 555 639 631 q 363 443 485 479 l 347 290 l 231 290 l 218 507 q 399 601 344 546 q 453 728 453 656 q 420 847 453 800 q 321 893 388 893 q 188 771 199 893 l 28 793 z "},"@":{"ha":1461,"x_min":103,"x_max":1358,"o":"m 742 -157 q 186 83 325 -157 q 103 456 103 226 q 261 904 103 740 q 728 1068 419 1068 q 1197 919 1036 1068 q 1358 507 1358 771 q 1297 267 1358 351 q 1040 174 1228 174 l 875 174 l 829 240 q 643 160 743 160 q 431 472 431 160 q 689 785 431 785 q 876 740 785 785 l 911 785 l 983 785 l 983 296 l 1024 296 q 1158 343 1121 296 q 1196 507 1196 390 q 1089 818 1196 700 q 742 936 982 936 q 378 803 486 936 q 278 456 278 679 q 288 295 278 364 q 329 163 299 226 q 411 61 360 100 q 742 -25 519 -25 l 983 -25 l 983 -157 l 742 -157 m 713 286 q 814 335 765 286 l 814 643 q 735 657 778 657 q 629 611 661 657 q 597 472 597 565 q 713 286 597 286 z "},"A":{"ha":892,"x_min":11,"x_max":881,"o":"m 324 1014 l 569 1014 l 881 0 l 699 0 l 613 281 l 279 281 l 194 0 l 11 0 l 324 1014 m 446 835 l 322 424 l 569 424 l 446 835 z "},"B":{"ha":868,"x_min":131,"x_max":821,"o":"m 497 0 l 131 0 l 131 1014 l 450 1014 q 711 931 638 1014 q 776 754 776 856 q 628 524 776 581 q 774 426 728 496 q 821 271 821 357 q 756 88 821 164 q 656 24 722 47 q 497 0 589 0 m 319 146 l 486 146 q 595 186 558 146 q 632 296 632 226 q 595 406 632 365 q 486 446 558 446 l 319 446 l 319 146 m 319 590 l 447 590 q 551 627 514 590 q 588 728 588 664 q 551 831 588 793 q 447 868 514 868 l 319 868 l 319 590 z "},"C":{"ha":869,"x_min":78,"x_max":831,"o":"m 489 881 q 313 795 358 881 q 267 508 267 710 q 313 219 267 306 q 489 133 358 133 q 633 189 590 133 q 678 350 675 244 l 831 343 q 745 72 819 164 q 489 -19 671 -19 q 161 119 251 -19 q 97 281 115 189 q 78 507 78 374 q 97 733 78 640 q 161 894 115 825 q 489 1033 251 1033 q 735 957 660 1033 q 826 732 810 881 l 674 708 q 622 836 665 792 q 489 881 579 881 z "},"D":{"ha":969,"x_min":131,"x_max":878,"o":"m 131 1014 l 468 1014 q 801 864 714 1014 q 861 707 844 792 q 878 519 878 622 q 868 344 878 415 q 831 206 858 274 q 760 96 804 139 q 468 0 661 0 l 131 0 l 131 1014 m 443 868 l 319 868 l 319 146 l 443 146 q 644 253 592 146 q 689 507 689 346 q 644 761 689 668 q 443 868 592 868 z "},"E":{"ha":778,"x_min":131,"x_max":731,"o":"m 131 1014 l 703 1014 l 703 868 l 319 868 l 319 588 l 668 588 l 668 443 l 319 443 l 319 146 l 731 146 l 731 0 l 131 0 l 131 1014 z "},"F":{"ha":711,"x_min":131,"x_max":675,"o":"m 131 1014 l 675 1014 l 675 868 l 319 868 l 319 588 l 629 588 l 629 443 l 319 443 l 319 0 l 131 0 l 131 1014 z "},"G":{"ha":965,"x_min":78,"x_max":849,"o":"m 483 133 q 686 350 683 133 l 686 397 l 531 397 l 531 518 l 849 518 l 849 0 l 754 0 l 722 101 q 472 -19 633 -19 q 158 122 244 -19 q 96 286 114 194 q 78 509 78 378 q 97 733 78 640 q 161 894 115 825 q 489 1033 251 1033 q 735 957 660 1033 q 826 732 810 881 l 674 708 q 622 836 665 792 q 489 881 579 881 q 313 794 358 881 q 267 510 267 708 q 312 222 267 311 q 483 133 357 133 z "},"H":{"ha":1014,"x_min":131,"x_max":883,"o":"m 694 1014 l 883 1014 l 883 0 l 694 0 l 694 435 l 319 435 l 319 0 l 131 0 l 131 1014 l 319 1014 l 319 579 l 694 579 l 694 1014 z "},"I":{"ha":450,"x_min":131,"x_max":319,"o":"m 131 1014 l 319 1014 l 319 0 l 131 0 l 131 1014 z "},"J":{"ha":674,"x_min":6,"x_max":564,"o":"m 564 1014 l 564 254 q 555 149 564 190 q 518 64 546 107 q 269 -19 463 -19 q 58 47 113 -19 q 15 140 22 93 q 6 288 6 206 l 169 288 q 192 167 169 201 q 273 133 214 133 q 353 160 332 133 q 375 254 375 186 l 375 1014 l 564 1014 z "},"K":{"ha":863,"x_min":131,"x_max":868,"o":"m 319 443 l 319 0 l 131 0 l 131 1014 l 319 1014 l 319 586 l 390 586 l 647 1014 l 842 1014 l 536 514 l 868 0 l 667 0 l 382 443 l 319 443 z "},"L":{"ha":671,"x_min":131,"x_max":665,"o":"m 131 0 l 131 1014 l 319 1014 l 319 146 l 665 146 l 665 0 l 131 0 z "},"M":{"ha":1229,"x_min":117,"x_max":1113,"o":"m 822 1014 l 1086 1014 l 1113 0 l 926 0 l 911 781 l 685 121 l 521 121 l 317 758 l 303 0 l 117 0 l 142 1014 l 407 1014 l 606 374 l 822 1014 z "},"N":{"ha":1051,"x_min":131,"x_max":921,"o":"m 732 1014 l 921 1014 l 921 0 l 721 0 l 319 689 l 319 0 l 131 0 l 131 1014 l 331 1014 l 732 324 l 732 1014 z "},"O":{"ha":985,"x_min":78,"x_max":907,"o":"m 826 135 q 804 97 826 135 q 698 20 782 60 q 503 -19 614 -19 q 319 8 393 -19 q 200 80 246 35 q 126 194 154 125 q 78 507 78 317 q 96 714 78 625 q 158 878 114 803 q 492 1033 247 1033 q 858 818 769 1033 q 907 507 907 697 q 889 299 907 388 q 826 135 871 210 m 492 133 q 668 232 618 133 q 718 507 718 331 q 668 782 718 683 q 492 881 618 881 q 310 772 358 881 q 267 507 267 674 q 379 161 267 229 q 492 133 425 133 z "},"P":{"ha":829,"x_min":131,"x_max":804,"o":"m 481 360 l 319 360 l 319 0 l 131 0 l 131 1014 l 481 1014 q 739 914 664 1014 q 804 686 804 824 q 739 461 804 550 q 481 360 664 360 m 319 506 l 451 506 q 615 687 615 506 q 451 868 615 868 l 319 868 l 319 506 z "},"Q":{"ha":971,"x_min":78,"x_max":893,"o":"m 122 190 q 88 332 97 257 q 78 522 78 407 q 95 728 78 638 q 157 892 113 819 q 283 999 201 964 q 485 1033 364 1033 q 688 998 606 1033 q 813 891 769 963 q 875 728 857 819 q 893 476 893 638 q 851 197 893 315 q 704 24 810 78 l 888 -54 l 813 -200 l 446 -18 q 122 190 193 -6 m 267 507 q 267 413 267 507 q 313 226 267 318 q 485 133 360 133 q 658 226 611 133 q 704 507 704 318 q 658 788 704 696 q 485 881 611 881 q 313 788 360 881 q 267 507 267 696 z "},"R":{"ha":917,"x_min":131,"x_max":860,"o":"m 131 1014 l 485 1014 q 753 913 678 1014 q 817 707 817 825 q 653 429 817 497 q 706 346 683 396 l 860 0 l 658 0 l 514 329 q 472 386 494 371 q 403 401 449 401 l 319 401 l 319 0 l 131 0 l 131 1014 m 319 547 l 463 547 q 587 593 546 547 q 628 708 628 639 q 587 822 628 776 q 463 868 546 868 l 319 868 l 319 547 z "},"S":{"ha":838,"x_min":61,"x_max":776,"o":"m 513 576 q 715 474 654 540 q 776 274 776 407 q 685 60 776 140 q 415 -19 593 -19 q 158 56 238 -19 q 61 276 79 132 l 213 300 q 269 173 221 218 q 403 128 317 128 q 588 268 588 128 q 553 358 588 328 q 419 414 518 389 l 340 433 q 142 536 201 468 q 82 740 82 604 q 169 954 82 875 q 428 1033 257 1033 q 676 958 600 1033 q 769 738 751 882 l 619 714 q 442 886 601 886 q 313 848 354 886 q 271 747 271 810 q 303 654 271 685 q 425 600 335 624 l 513 576 z "},"T":{"ha":715,"x_min":-3,"x_max":718,"o":"m -3 871 l -3 1014 l 718 1014 l 718 871 l 453 871 l 453 0 l 264 0 l 264 871 l -3 871 z "},"U":{"ha":976,"x_min":110,"x_max":867,"o":"m 678 1014 l 867 1014 l 867 335 q 843 175 867 242 q 785 72 819 108 q 696 13 750 35 q 595 -14 642 -8 q 488 -19 549 -19 q 380 -14 426 -19 q 279 13 333 -8 q 191 72 225 35 q 133 175 157 108 q 110 335 110 242 l 110 1014 l 299 1014 l 299 349 q 349 177 299 219 q 488 135 399 135 q 560 142 531 135 q 618 169 589 149 q 678 349 678 213 l 678 1014 z "},"V":{"ha":874,"x_min":14,"x_max":860,"o":"m 558 0 l 314 0 l 14 1014 l 203 1014 l 436 183 l 669 1014 l 860 1014 l 558 0 z "},"W":{"ha":1260,"x_min":31,"x_max":1229,"o":"m 500 0 l 226 0 l 31 1014 l 219 1014 l 369 188 l 536 1014 l 724 1014 l 889 188 l 1040 1014 l 1229 1014 l 1033 0 l 760 0 l 629 632 l 500 0 z "},"X":{"ha":864,"x_min":7,"x_max":881,"o":"m 7 1014 l 222 1014 l 450 663 l 661 1014 l 860 1014 l 550 508 l 881 0 l 665 0 l 425 369 l 207 0 l 10 0 l 326 522 l 7 1014 z "},"Y":{"ha":797,"x_min":-8,"x_max":806,"o":"m 493 0 l 304 0 l 304 353 l -8 1014 l 181 1014 l 399 529 l 617 1014 l 806 1014 l 493 353 l 493 0 z "},"Z":{"ha":781,"x_min":31,"x_max":750,"o":"m 58 868 l 58 1014 l 736 1014 l 736 894 l 257 146 l 750 146 l 750 0 l 31 0 l 31 119 l 510 868 l 58 868 z "},"[":{"ha":456,"x_min":100,"x_max":443,"o":"m 100 -92 l 100 1021 l 443 1021 l 443 893 l 290 893 l 290 36 l 443 36 l 443 -92 l 100 -92 z "},"\\":{"ha":494,"x_min":-11,"x_max":506,"o":"m 176 1076 l 506 -147 l 318 -147 l -11 1076 l 176 1076 z "},"]":{"ha":456,"x_min":13,"x_max":356,"o":"m 356 1021 l 356 -92 l 13 -92 l 13 36 l 165 36 l 165 893 l 13 893 l 13 1021 l 356 1021 z "},"^":{"ha":806,"x_min":111,"x_max":694,"o":"m 322 858 l 483 858 l 694 439 l 553 439 l 403 757 l 253 439 l 111 439 l 322 858 z "},"_":{"ha":783,"x_min":86,"x_max":697,"o":"m 86 -128 l 86 0 l 697 0 l 697 -128 l 86 -128 z "},"`":{"ha":414,"x_min":22,"x_max":376,"o":"m 376 961 l 314 861 l 22 1013 l 106 1146 l 376 961 z "},"a":{"ha":829,"x_min":64,"x_max":713,"o":"m 410 814 q 713 538 713 814 l 713 0 l 592 0 l 539 97 q 279 -19 428 -19 q 119 40 174 -19 q 64 198 64 99 q 126 358 64 297 q 360 444 189 419 l 526 469 l 526 536 q 399 671 526 671 q 256 549 278 671 l 111 592 q 410 814 164 814 m 339 117 q 526 210 433 117 l 526 353 l 393 329 q 274 281 303 314 q 244 206 244 247 q 269 140 244 164 q 339 117 294 117 z "},"b":{"ha":872,"x_min":131,"x_max":822,"o":"m 503 -19 q 263 53 376 -19 l 219 0 l 131 0 l 131 1044 l 317 1058 l 317 775 q 503 814 411 814 q 822 397 822 814 q 503 -19 822 -19 m 451 671 q 317 643 385 671 l 317 156 q 447 124 376 124 q 636 397 636 124 q 451 671 636 671 z "},"c":{"ha":744,"x_min":50,"x_max":708,"o":"m 272 604 q 254 571 272 604 q 236 397 236 538 q 272 190 236 257 q 395 124 307 124 q 522 160 483 124 q 563 274 560 196 l 708 267 q 626 53 700 125 q 382 -19 551 -19 q 111 110 183 -19 q 63 240 76 172 q 50 398 50 308 q 63 556 50 488 q 111 686 76 625 q 382 814 182 814 q 624 745 550 814 q 707 540 697 676 l 563 521 q 522 635 560 599 q 395 671 483 671 q 272 604 307 671 z "},"d":{"ha":872,"x_min":50,"x_max":742,"o":"m 318 -19 q 50 397 50 -19 q 375 814 50 814 q 556 781 467 814 l 556 1044 l 742 1058 l 742 0 l 621 0 l 569 99 q 318 -19 454 -19 m 392 124 q 556 213 478 124 l 556 643 q 422 671 488 671 q 279 601 322 671 q 236 397 236 532 q 392 124 236 124 z "},"e":{"ha":782,"x_min":50,"x_max":739,"o":"m 406 -19 q 132 84 214 -19 q 50 397 50 188 q 400 814 50 814 q 675 689 601 814 q 739 411 739 582 l 739 361 l 231 361 q 274 177 232 231 q 411 124 315 124 q 575 235 565 124 l 728 229 q 406 -19 706 -19 m 513 626 q 495 648 513 626 q 399 671 478 671 q 283 627 319 671 q 235 488 246 583 l 556 488 q 513 626 547 581 z "},"f":{"ha":488,"x_min":61,"x_max":546,"o":"m 407 931 q 333 849 333 931 l 333 794 l 483 794 l 483 674 l 333 674 l 333 0 l 147 0 l 147 674 l 61 674 l 61 794 l 147 794 l 147 849 q 388 1076 147 1076 q 546 1051 478 1076 l 500 911 q 407 931 453 931 z "},"g":{"ha":803,"x_min":31,"x_max":772,"o":"m 655 329 q 639 307 655 329 q 557 259 622 285 q 403 233 492 233 q 257 254 315 233 l 218 213 q 194 167 194 189 q 240 133 194 133 l 536 133 q 709 74 646 133 q 772 -67 772 14 q 739 -194 772 -147 q 643 -264 706 -242 q 373 -301 538 -301 q 119 -262 208 -301 q 31 -126 31 -222 q 57 -44 31 -81 q 122 13 83 -7 q 38 136 38 39 q 88 254 38 200 l 151 321 q 86 524 86 396 q 147 718 86 636 q 400 814 217 814 q 538 794 479 814 l 769 794 l 769 685 l 678 685 q 715 542 715 617 q 701 421 715 468 q 655 329 688 374 m 401 690 q 332 690 401 690 q 264 524 264 690 q 401 357 264 357 q 538 524 538 357 q 401 690 538 690 m 200 -85 q 200 -110 200 -85 q 245 -149 200 -135 q 394 -162 290 -162 q 542 -147 499 -162 q 586 -78 586 -131 q 478 0 586 0 l 240 0 q 200 -85 200 -36 z "},"h":{"ha":921,"x_min":131,"x_max":804,"o":"m 317 746 q 556 814 431 814 q 743 747 682 814 q 804 561 804 679 l 804 0 l 618 0 l 618 542 q 592 642 618 613 q 503 671 567 671 q 317 608 403 671 l 317 0 l 131 0 l 131 1044 l 317 1058 l 317 746 z "},"i":{"ha":447,"x_min":119,"x_max":331,"o":"m 131 794 l 317 794 l 317 0 l 131 0 l 131 794 m 224 889 q 119 997 119 889 q 224 1104 119 1104 q 331 997 331 1104 q 224 889 331 889 z "},"j":{"ha":447,"x_min":-83,"x_max":331,"o":"m 57 -144 q 131 -62 131 -144 l 131 794 l 317 794 l 317 -62 q 76 -290 317 -290 q -83 -267 -12 -290 l -37 -126 q 57 -144 8 -144 m 224 889 q 119 997 119 889 q 224 1104 119 1104 q 331 997 331 1104 q 224 889 331 889 z "},"k":{"ha":799,"x_min":131,"x_max":810,"o":"m 317 0 l 131 0 l 131 1044 l 317 1058 l 317 492 l 374 492 l 583 794 l 785 794 l 518 417 l 810 0 l 608 0 l 356 367 l 317 367 l 317 0 z "},"l":{"ha":447,"x_min":131,"x_max":317,"o":"m 317 0 l 131 0 l 131 1044 l 317 1069 l 317 0 z "},"m":{"ha":1386,"x_min":131,"x_max":1269,"o":"m 515 814 q 749 718 682 814 q 1003 814 868 814 q 1204 747 1139 814 q 1269 561 1269 679 l 1269 0 l 1083 0 l 1083 531 q 1057 637 1083 603 q 964 671 1031 671 q 790 606 869 671 q 793 561 793 578 l 793 0 l 607 0 l 607 531 q 579 637 607 603 q 473 671 551 671 q 317 615 394 671 l 317 0 l 131 0 l 131 794 l 229 794 l 278 729 q 515 814 390 814 z "},"n":{"ha":921,"x_min":131,"x_max":804,"o":"m 278 722 q 545 814 408 814 q 743 747 682 814 q 804 561 804 679 l 804 0 l 618 0 l 618 542 q 592 642 618 613 q 503 671 567 671 q 317 608 403 671 l 317 0 l 131 0 l 131 794 l 218 794 l 278 722 z "},"o":{"ha":822,"x_min":50,"x_max":772,"o":"m 272 193 q 290 158 272 193 q 411 124 308 124 q 550 193 514 124 q 586 397 586 263 q 550 601 586 532 q 411 671 514 671 q 272 601 308 671 q 236 397 236 532 q 272 193 236 263 m 772 397 q 772 189 772 397 q 411 -19 772 -19 q 50 397 50 -19 q 411 814 50 814 q 772 397 772 814 z "},"p":{"ha":872,"x_min":131,"x_max":822,"o":"m 503 814 q 822 397 822 814 q 497 -19 822 -19 q 317 8 414 -19 l 317 -285 l 131 -310 l 131 794 l 219 794 l 268 735 q 503 814 386 814 m 451 671 q 317 632 381 671 l 317 143 q 450 124 382 124 q 593 194 550 124 q 636 397 636 264 q 451 671 636 671 z "},"q":{"ha":872,"x_min":50,"x_max":742,"o":"m 374 814 q 610 742 504 814 l 654 794 l 742 794 l 742 -285 l 556 -310 l 556 17 q 374 -19 457 -19 q 50 397 50 -19 q 374 814 50 814 m 424 124 q 556 149 492 124 l 556 638 q 424 671 494 671 q 236 397 236 671 q 424 124 236 124 z "},"r":{"ha":565,"x_min":131,"x_max":563,"o":"m 317 0 l 131 0 l 131 794 l 218 794 l 292 671 q 563 814 388 807 l 563 654 q 317 554 399 650 l 317 0 z "},"s":{"ha":758,"x_min":60,"x_max":699,"o":"m 699 222 q 365 -15 699 -15 q 149 48 219 -15 q 60 232 78 111 l 204 254 q 370 121 219 121 q 521 215 521 121 q 491 274 521 254 q 371 314 461 293 l 307 329 q 130 415 183 358 q 76 578 76 471 q 399 814 76 814 q 606 751 538 814 q 692 567 675 688 l 547 546 q 394 678 532 678 q 256 583 256 678 q 283 524 256 544 q 393 485 310 504 l 465 467 q 644 381 589 436 q 699 222 699 326 z "},"t":{"ha":500,"x_min":13,"x_max":493,"o":"m 13 674 l 13 794 l 140 794 l 140 939 l 326 986 l 326 794 l 478 794 l 478 674 l 326 674 l 326 225 q 344 140 326 165 q 395 115 361 115 q 469 126 429 115 l 493 11 q 347 -19 411 -19 q 243 -4 282 -19 q 185 31 204 11 q 156 86 165 51 q 140 207 140 135 l 140 674 l 13 674 z "},"u":{"ha":922,"x_min":117,"x_max":792,"o":"m 361 -19 q 117 233 117 -19 l 117 794 l 303 794 l 303 264 q 331 158 303 192 q 426 124 360 124 q 606 213 521 124 l 606 794 l 792 794 l 792 0 l 671 0 l 618 96 q 361 -19 510 -19 z "},"v":{"ha":757,"x_min":6,"x_max":751,"o":"m 482 0 l 275 0 l 6 794 l 193 794 l 378 219 l 564 794 l 751 794 l 482 0 z "},"w":{"ha":1053,"x_min":13,"x_max":1040,"o":"m 392 0 l 217 0 l 13 794 l 200 794 l 317 250 l 447 725 l 604 725 l 735 250 l 853 794 l 1040 794 l 838 0 l 661 0 l 526 481 l 392 0 z "},"x":{"ha":736,"x_min":3,"x_max":733,"o":"m 190 0 l 3 0 l 271 399 l 15 794 l 219 794 l 375 553 l 533 794 l 721 794 l 468 408 l 733 0 l 529 0 l 363 256 l 190 0 z "},"y":{"ha":753,"x_min":6,"x_max":746,"o":"m 349 -329 l 183 -304 l 296 -11 l 6 794 l 193 794 l 383 242 l 556 794 l 746 794 l 349 -329 z "},"z":{"ha":707,"x_min":46,"x_max":661,"o":"m 60 664 l 60 794 l 649 794 l 649 681 l 268 131 l 661 131 l 661 0 l 46 0 l 46 114 l 429 664 l 60 664 z "},"{":{"ha":457,"x_min":17,"x_max":444,"o":"m 290 711 l 301 561 q 281 499 301 522 q 233 476 261 476 l 233 469 q 281 446 261 469 q 301 385 301 422 l 290 228 q 444 39 290 39 l 444 -92 q 181 -15 263 -92 q 99 190 99 63 l 110 347 q 79 394 110 381 q 17 408 49 408 l 17 522 q 79 536 49 522 q 110 583 110 550 q 99 740 110 583 q 181 945 99 868 q 444 1022 263 1022 l 444 892 q 290 711 290 892 z "},"|":{"ha":468,"x_min":133,"x_max":335,"o":"m 133 -147 l 133 1076 l 335 1076 l 335 -147 l 133 -147 z "},"}":{"ha":457,"x_min":13,"x_max":440,"o":"m 167 232 l 157 392 q 176 454 157 431 q 224 478 196 478 l 224 485 q 176 508 196 485 q 157 571 157 532 l 167 731 q 132 849 167 807 q 13 892 97 892 l 13 1022 q 277 946 196 1022 q 358 740 358 869 l 347 583 q 376 536 347 550 q 440 522 406 522 l 440 408 q 376 394 406 408 q 347 347 347 381 q 358 190 347 347 q 277 -15 358 61 q 13 -92 196 -92 l 13 39 q 167 232 167 39 z "},"~":{"ha":806,"x_min":119,"x_max":686,"o":"m 119 506 q 231 472 167 472 q 402 502 296 472 q 572 532 508 532 q 686 506 635 532 l 686 378 q 571 407 633 407 q 402 377 508 407 q 233 347 296 347 q 119 378 171 347 l 119 506 z "}," ":{"ha":382,"x_min":0,"x_max":0,"o":""},"¡":{"ha":414,"x_min":106,"x_max":310,"o":"m 110 758 q 113 768 110 758 q 139 796 115 778 q 206 814 163 814 q 274 796 250 814 q 301 758 297 778 q 306 705 306 738 q 301 652 306 672 q 274 614 297 632 q 212 596 250 596 q 151 605 174 596 q 119 632 129 614 q 106 699 106 661 q 110 758 106 738 m 310 -211 l 106 -211 l 106 42 l 153 513 l 263 513 l 310 42 l 310 -211 z "},"¢":{"ha":875,"x_min":93,"x_max":804,"o":"m 522 -112 l 397 -112 l 397 56 q 93 501 93 92 q 397 956 93 910 l 397 1125 l 522 1125 l 522 960 q 793 654 771 938 l 646 647 q 602 769 643 722 q 490 817 561 817 q 377 793 419 817 q 314 722 335 769 q 279 507 279 642 q 466 197 279 197 q 657 346 653 197 l 804 336 q 522 56 783 79 l 522 -112 z "},"£":{"ha":875,"x_min":86,"x_max":822,"o":"m 86 414 l 86 540 l 176 540 l 176 728 q 249 955 176 876 q 493 1033 322 1033 q 735 957 664 1033 q 807 725 807 881 l 643 713 q 501 886 643 886 q 394 847 424 886 q 365 728 365 807 l 365 540 l 657 540 l 657 414 l 365 414 l 365 301 q 351 210 365 243 q 301 147 336 176 l 822 147 l 822 0 l 93 0 l 93 115 q 176 271 176 171 l 176 414 l 86 414 z "},"¤":{"ha":875,"x_min":46,"x_max":829,"o":"m 260 774 q 444 824 338 824 q 622 781 551 824 l 740 899 l 829 810 l 710 690 q 754 508 754 614 q 708 324 754 401 l 829 204 l 740 115 l 619 235 q 436 190 544 190 q 257 239 328 190 l 135 115 l 46 204 l 174 331 q 135 505 135 404 q 175 681 135 606 l 46 810 l 135 899 l 260 774 m 300 507 q 300 474 300 507 q 332 395 300 440 q 441 350 364 350 q 553 395 518 350 q 589 507 589 440 q 557 619 589 574 q 448 664 525 664 q 335 619 371 664 q 300 507 300 574 z "},"¥":{"ha":875,"x_min":43,"x_max":832,"o":"m 96 529 l 96 654 l 226 654 l 43 1014 l 235 1014 l 438 597 l 642 1014 l 832 1014 l 649 654 l 782 654 l 782 529 l 585 529 l 533 428 l 782 428 l 782 301 l 529 301 l 529 0 l 346 0 l 346 301 l 96 301 l 96 428 l 342 428 l 290 529 l 96 529 z "},"¦":{"ha":468,"x_min":133,"x_max":335,"o":"m 133 585 l 133 1076 l 335 1076 l 335 585 l 133 585 m 133 -147 l 133 344 l 335 344 l 335 -147 l 133 -147 z "},"§":{"ha":700,"x_min":33,"x_max":667,"o":"m 667 301 q 492 53 667 138 q 558 -140 558 -36 q 477 -318 558 -243 q 253 -428 396 -393 l 210 -293 q 323 -245 274 -279 q 372 -166 372 -211 q 360 -94 372 -121 q 310 -24 347 -68 l 133 185 q 33 414 33 303 q 210 663 33 579 q 142 858 142 757 q 224 1033 142 958 q 447 1142 306 1108 l 490 1008 q 377 960 426 994 q 328 881 328 926 q 338 811 328 836 q 378 753 349 786 l 563 533 q 667 301 667 425 m 481 274 q 469 342 481 315 q 418 413 457 368 l 304 546 q 219 440 219 504 q 230 375 219 400 q 269 317 240 350 l 394 167 q 481 274 481 207 z "},"¨":{"ha":517,"x_min":13,"x_max":504,"o":"m 158 901 q 148 897 158 901 q 106 893 138 893 q 54 901 74 893 q 26 926 35 910 q 13 986 13 954 q 15 1033 13 1018 q 26 1064 18 1047 q 106 1100 43 1100 q 188 1064 171 1100 q 201 1004 201 1036 q 199 958 201 972 q 188 926 196 943 q 158 901 179 910 m 461 901 q 451 897 461 901 q 408 893 440 893 q 357 901 376 893 q 329 926 338 910 q 315 986 315 954 q 318 1033 315 1018 q 329 1064 321 1047 q 408 1100 346 1100 q 490 1064 474 1100 q 504 1004 504 1036 q 501 958 504 972 q 490 926 499 943 q 461 901 482 910 z "},"©":{"ha":1021,"x_min":69,"x_max":951,"o":"m 500 988 q 388 779 388 988 q 501 571 388 571 q 607 694 603 571 l 699 690 q 499 489 688 489 q 330 561 378 489 q 282 778 282 633 q 332 995 282 922 q 497 1068 382 1068 q 697 892 681 1068 l 604 885 q 576 963 600 938 q 500 988 551 988 m 510 338 q 402 338 510 338 q 182 451 294 338 q 69 778 69 564 q 183 1106 69 993 q 510 1219 296 1219 q 838 1106 725 1219 q 951 778 951 992 q 838 451 951 564 q 510 338 725 338 m 510 1126 q 340 1126 510 1126 q 169 778 169 1126 q 510 431 169 431 q 851 778 851 431 q 510 1126 851 1126 z "},"ª":{"ha":617,"x_min":44,"x_max":540,"o":"m 307 1056 q 531 863 531 1056 l 531 486 l 422 486 l 374 540 q 220 472 303 472 q 96 515 138 472 q 54 631 54 558 q 99 747 54 703 q 269 810 144 792 l 363 822 l 363 861 q 295 929 363 929 q 217 858 228 929 l 88 897 q 160 1017 108 978 q 307 1056 211 1056 m 215 639 q 265 593 215 593 q 363 633 315 593 l 363 722 l 304 711 q 215 639 215 694 m 44 283 l 44 390 l 540 390 l 540 283 l 44 283 z "},"«":{"ha":744,"x_min":31,"x_max":692,"o":"m 371 647 l 213 438 l 371 228 l 281 139 l 31 404 l 31 471 l 281 736 l 371 647 m 692 647 l 533 438 l 692 228 l 601 139 l 351 404 l 351 471 l 601 736 l 692 647 z "},"¬":{"ha":806,"x_min":119,"x_max":686,"o":"m 119 378 l 119 506 l 686 506 l 686 186 l 564 186 l 564 378 l 119 378 z "},"®":{"ha":1021,"x_min":69,"x_max":951,"o":"m 510 338 q 402 338 510 338 q 182 451 294 338 q 69 778 69 564 q 183 1106 69 993 q 510 1219 296 1219 q 838 1106 725 1219 q 951 778 951 992 q 838 451 951 564 q 510 338 725 338 m 510 1126 q 340 1126 510 1126 q 169 778 169 1126 q 510 431 169 431 q 851 778 851 431 q 510 1126 851 1126 m 336 1058 l 518 1058 q 672 1000 636 1058 q 701 893 701 953 q 611 735 701 761 q 644 686 631 717 l 725 500 l 614 500 l 536 681 q 486 718 521 718 l 442 718 l 442 500 l 336 500 l 336 1058 m 442 797 l 517 797 q 596 888 596 797 q 517 978 596 978 l 442 978 l 442 797 z "},"¯":{"ha":492,"x_min":58,"x_max":433,"o":"m 58 931 l 58 1065 l 433 1065 l 433 931 l 58 931 z "},"°":{"ha":568,"x_min":36,"x_max":532,"o":"m 208 628 q 216 613 208 628 q 283 599 224 599 q 360 628 343 599 q 376 729 376 657 q 360 831 376 801 q 283 861 343 861 q 208 831 224 861 q 192 729 192 801 q 208 628 192 657 m 468 524 q 455 513 468 524 q 395 487 442 501 q 276 472 349 472 q 151 492 203 472 q 75 553 99 513 q 44 632 51 593 q 36 729 36 671 q 44 827 36 788 q 75 906 51 867 q 151 966 99 946 q 283 986 203 986 q 417 966 364 986 q 493 906 469 946 q 524 827 517 867 q 532 735 532 788 q 528 651 532 683 q 509 582 524 618 q 468 524 494 546 z "},"±":{"ha":806,"x_min":119,"x_max":686,"o":"m 119 447 l 119 575 l 339 575 l 339 794 l 467 794 l 467 575 l 686 575 l 686 447 l 467 447 l 467 228 l 339 228 l 339 447 l 119 447 m 119 0 l 119 128 l 686 128 l 686 0 l 119 0 z "},"²":{"ha":538,"x_min":53,"x_max":474,"o":"m 54 879 q 265 1047 68 1047 q 413 1001 364 1047 q 463 881 463 954 q 378 714 463 807 l 268 592 l 474 592 l 474 472 l 53 472 l 53 565 l 243 764 q 306 878 306 831 q 251 925 306 925 q 206 911 221 925 q 190 864 192 897 l 54 879 z "},"³":{"ha":538,"x_min":53,"x_max":483,"o":"m 189 644 q 260 579 193 579 q 326 638 326 579 q 224 704 326 704 l 211 704 l 211 797 l 225 797 q 322 871 322 797 q 307 910 322 894 q 264 925 292 925 q 201 865 208 925 l 64 882 q 119 1010 69 972 q 270 1047 169 1047 q 423 999 371 1047 q 475 869 475 950 q 392 753 475 789 q 483 625 483 717 q 424 510 483 560 q 264 461 364 461 q 111 499 164 461 q 53 628 58 538 l 189 644 z "},"´":{"ha":414,"x_min":38,"x_max":392,"o":"m 100 861 l 38 961 l 308 1146 l 392 1013 l 100 861 z "},"µ":{"ha":868,"x_min":133,"x_max":811,"o":"m 319 -315 l 133 -315 l 133 794 l 319 794 l 319 179 q 488 124 406 124 q 597 157 569 124 q 625 264 625 190 l 625 794 l 811 794 l 811 233 q 565 -19 811 -19 q 319 44 442 -19 l 319 -315 z "},"¶":{"ha":713,"x_min":19,"x_max":554,"o":"m 554 0 l 365 0 l 365 374 l 304 374 q 91 453 163 374 q 19 651 19 533 q 91 850 19 769 q 304 931 163 931 l 554 931 l 554 0 z "},"·":{"ha":325,"x_min":63,"x_max":263,"o":"m 248 393 q 243 384 248 393 q 217 366 239 375 q 157 357 196 357 q 95 375 118 357 q 67 413 72 393 q 63 461 63 433 q 65 505 63 489 q 78 539 68 521 q 161 575 94 575 q 247 539 231 575 q 263 476 263 510 q 260 426 263 442 q 248 393 257 411 z "},"¸":{"ha":393,"x_min":36,"x_max":357,"o":"m 36 -181 l 153 -181 q 197 -232 153 -232 q 228 -223 217 -232 q 241 -204 239 -214 q 243 -179 243 -194 q 193 -128 243 -136 l 119 -115 l 132 -49 l 193 -49 q 315 -77 272 -49 q 357 -182 357 -106 q 322 -297 357 -258 q 196 -335 286 -335 q 36 -181 36 -335 z "},"¹":{"ha":538,"x_min":93,"x_max":367,"o":"m 93 901 l 93 993 q 235 1035 189 1003 l 367 1035 l 367 472 l 207 472 l 207 901 l 93 901 z "},"º":{"ha":568,"x_min":22,"x_max":546,"o":"m 36 283 l 36 390 l 532 390 l 532 283 l 36 283 m 190 764 q 190 720 190 764 q 209 638 190 676 q 284 599 228 599 q 359 638 340 599 q 378 764 378 676 q 359 890 378 851 q 284 929 340 929 q 209 890 228 929 q 190 764 190 851 m 284 1056 q 415 1056 284 1056 q 546 764 546 1056 q 284 472 546 472 q 22 764 22 472 q 284 1056 22 1056 z "},"»":{"ha":744,"x_min":44,"x_max":706,"o":"m 365 228 l 524 438 l 365 647 l 456 736 l 706 471 l 706 404 l 456 139 l 365 228 m 44 228 l 203 438 l 44 647 l 135 736 l 385 471 l 385 404 l 135 139 l 44 228 z "},"¼":{"ha":1356,"x_min":100,"x_max":1247,"o":"m 1201 0 l 1056 0 l 1056 96 l 788 96 l 788 204 l 969 563 l 1201 563 l 1201 215 l 1247 215 l 1247 96 l 1201 96 l 1201 0 m 1056 215 l 1056 447 l 940 215 l 1056 215 m 100 882 l 100 974 q 242 1015 196 983 l 374 1015 l 374 453 l 214 453 l 214 882 l 100 882 m 444 -50 l 742 1063 l 860 1063 l 561 -50 l 444 -50 z "},"½":{"ha":1356,"x_min":100,"x_max":1246,"o":"m 442 -50 l 739 1063 l 857 1063 l 558 -50 l 442 -50 m 826 407 q 1038 575 840 575 q 1185 528 1136 575 q 1235 408 1235 482 q 1150 242 1235 335 l 1040 119 l 1246 119 l 1246 0 l 825 0 l 825 93 l 1015 292 q 1078 406 1078 358 q 1024 453 1078 453 q 978 439 993 453 q 963 392 964 425 l 826 407 m 100 882 l 100 974 q 242 1015 196 983 l 374 1015 l 374 453 l 214 453 l 214 882 l 100 882 z "},"¾":{"ha":1356,"x_min":60,"x_max":1247,"o":"m 1201 0 l 1056 0 l 1056 96 l 788 96 l 788 204 l 969 563 l 1201 563 l 1201 215 l 1247 215 l 1247 96 l 1201 96 l 1201 0 m 1056 215 l 1056 447 l 940 215 l 1056 215 m 196 625 q 267 560 200 560 q 333 618 333 560 q 231 685 333 685 l 218 685 l 218 778 l 232 778 q 329 851 329 778 q 314 890 329 875 q 271 906 299 906 q 208 846 215 906 l 71 863 q 126 990 76 953 q 277 1028 176 1028 q 430 979 378 1028 q 482 850 482 931 q 399 733 482 769 q 490 606 490 697 q 431 491 490 540 q 271 442 371 442 q 118 480 171 442 q 60 608 65 518 l 196 625 m 472 -50 l 769 1063 l 888 1063 l 589 -50 l 472 -50 z "},"¿":{"ha":650,"x_min":25,"x_max":636,"o":"m 287 778 q 291 787 287 778 q 317 805 296 796 q 378 814 339 814 q 440 796 417 814 q 467 758 463 778 q 472 710 472 738 q 469 666 472 682 q 458 632 467 650 q 374 596 439 596 q 286 632 306 596 q 272 695 272 661 q 275 744 272 729 q 287 778 278 760 m 636 10 q 549 -167 625 -104 q 332 -231 474 -231 q 108 -145 190 -231 q 25 56 25 -60 q 102 248 25 172 q 301 360 179 324 l 317 513 l 433 513 l 446 296 q 265 202 319 257 q 211 75 211 147 q 244 -44 211 3 q 343 -90 276 -90 q 476 32 465 -90 l 636 10 z "},"À":{"ha":892,"x_min":11,"x_max":881,"o":"m 324 1014 l 569 1014 l 881 0 l 699 0 l 613 281 l 279 281 l 194 0 l 11 0 l 324 1014 m 446 835 l 322 424 l 569 424 l 446 835 m 631 1181 l 568 1081 l 276 1232 l 360 1365 l 631 1181 z "},"Á":{"ha":892,"x_min":11,"x_max":881,"o":"m 324 1014 l 569 1014 l 881 0 l 699 0 l 613 281 l 279 281 l 194 0 l 11 0 l 324 1014 m 446 835 l 322 424 l 569 424 l 446 835 m 353 1081 l 290 1181 l 561 1365 l 644 1232 l 353 1081 z "},"Â":{"ha":892,"x_min":11,"x_max":881,"o":"m 324 1014 l 569 1014 l 881 0 l 699 0 l 613 281 l 279 281 l 194 0 l 11 0 l 324 1014 m 446 835 l 322 424 l 569 424 l 446 835 m 307 1089 l 240 1156 l 418 1360 l 503 1360 l 681 1156 l 614 1089 l 460 1206 l 307 1089 z "},"Ã":{"ha":892,"x_min":11,"x_max":881,"o":"m 324 1014 l 569 1014 l 881 0 l 699 0 l 613 281 l 279 281 l 194 0 l 11 0 l 324 1014 m 446 835 l 322 424 l 569 424 l 446 835 m 706 1300 q 647 1175 682 1213 q 569 1138 611 1138 q 463 1163 528 1138 q 376 1188 397 1188 q 318 1126 336 1188 l 214 1160 q 273 1285 238 1247 q 350 1322 308 1322 q 458 1297 392 1322 q 544 1272 524 1272 q 603 1333 585 1272 l 706 1300 z "},"Ä":{"ha":892,"x_min":11,"x_max":881,"o":"m 324 1014 l 569 1014 l 881 0 l 699 0 l 613 281 l 279 281 l 194 0 l 11 0 l 324 1014 m 446 835 l 322 424 l 569 424 l 446 835 m 360 1121 q 349 1117 360 1121 q 307 1113 339 1113 q 256 1121 275 1113 q 228 1146 236 1129 q 214 1206 214 1174 q 217 1252 214 1238 q 228 1283 219 1267 q 307 1319 244 1319 q 389 1283 372 1319 q 403 1224 403 1256 q 400 1177 403 1192 q 389 1146 397 1163 q 360 1121 381 1129 m 663 1121 q 652 1117 663 1121 q 610 1113 642 1113 q 558 1121 578 1113 q 531 1146 539 1129 q 517 1206 517 1174 q 519 1252 517 1238 q 531 1283 522 1267 q 610 1319 547 1319 q 692 1283 675 1319 q 706 1224 706 1256 q 703 1177 706 1192 q 692 1146 700 1163 q 663 1121 683 1129 z "},"Å":{"ha":892,"x_min":11,"x_max":881,"o":"m 324 1014 l 569 1014 l 881 0 l 699 0 l 613 281 l 279 281 l 194 0 l 11 0 l 324 1014 m 446 835 l 322 424 l 569 424 l 446 835 m 458 1158 q 515 1226 515 1158 q 458 1294 515 1294 q 407 1226 407 1294 q 458 1158 407 1158 m 458 1069 q 304 1226 304 1069 q 458 1382 304 1382 q 583 1335 549 1382 q 618 1225 618 1289 q 583 1115 618 1161 q 458 1069 549 1069 z "},"Æ":{"ha":1299,"x_min":15,"x_max":1251,"o":"m 1224 1014 l 1224 868 l 840 868 l 840 560 l 1189 560 l 1189 415 l 840 415 l 840 146 l 1251 146 l 1251 0 l 651 0 l 651 415 l 369 415 l 199 0 l 15 0 l 439 1014 l 1224 1014 m 651 868 l 556 868 l 428 560 l 651 560 l 651 868 z "},"Ç":{"ha":869,"x_min":78,"x_max":831,"o":"m 489 881 q 313 795 358 881 q 267 508 267 710 q 313 219 267 306 q 489 133 358 133 q 633 189 590 133 q 678 350 675 244 l 831 343 q 745 72 819 164 q 489 -19 671 -19 q 161 119 251 -19 q 97 281 115 189 q 78 507 78 374 q 97 733 78 640 q 161 894 115 825 q 489 1033 251 1033 q 735 957 660 1033 q 826 732 810 881 l 674 708 q 622 836 665 792 q 489 881 579 881 m 294 -181 l 411 -181 q 456 -232 411 -232 q 486 -223 475 -232 q 499 -204 497 -214 q 501 -179 501 -194 q 451 -128 501 -136 l 378 -115 l 390 -49 l 451 -49 q 573 -77 531 -49 q 615 -182 615 -106 q 580 -297 615 -258 q 454 -335 544 -335 q 294 -181 294 -335 z "},"È":{"ha":778,"x_min":131,"x_max":731,"o":"m 131 1014 l 703 1014 l 703 868 l 319 868 l 319 588 l 668 588 l 668 443 l 319 443 l 319 146 l 731 146 l 731 0 l 131 0 l 131 1014 m 607 1181 l 544 1081 l 253 1232 l 336 1365 l 607 1181 z "},"É":{"ha":778,"x_min":131,"x_max":731,"o":"m 131 1014 l 703 1014 l 703 868 l 319 868 l 319 588 l 668 588 l 668 443 l 319 443 l 319 146 l 731 146 l 731 0 l 131 0 l 131 1014 m 340 1081 l 278 1181 l 549 1365 l 632 1232 l 340 1081 z "},"Ê":{"ha":778,"x_min":131,"x_max":731,"o":"m 131 1014 l 703 1014 l 703 868 l 319 868 l 319 588 l 668 588 l 668 443 l 319 443 l 319 146 l 731 146 l 731 0 l 131 0 l 131 1014 m 283 1089 l 217 1156 l 394 1360 l 479 1360 l 657 1156 l 590 1089 l 436 1206 l 283 1089 z "},"Ë":{"ha":778,"x_min":131,"x_max":731,"o":"m 131 1014 l 703 1014 l 703 868 l 319 868 l 319 588 l 668 588 l 668 443 l 319 443 l 319 146 l 731 146 l 731 0 l 131 0 l 131 1014 m 336 1121 q 326 1117 336 1121 q 283 1113 315 1113 q 232 1121 251 1113 q 204 1146 213 1129 q 190 1206 190 1174 q 193 1252 190 1238 q 204 1283 196 1267 q 283 1319 221 1319 q 365 1283 349 1319 q 379 1224 379 1256 q 376 1177 379 1192 q 365 1146 374 1163 q 336 1121 357 1129 m 639 1121 q 628 1117 639 1121 q 586 1113 618 1113 q 535 1121 554 1113 q 507 1146 515 1129 q 493 1206 493 1174 q 496 1252 493 1238 q 507 1283 499 1267 q 586 1319 524 1319 q 668 1283 651 1319 q 682 1224 682 1256 q 679 1177 682 1192 q 668 1146 676 1163 q 639 1121 660 1129 z "},"Ì":{"ha":450,"x_min":42,"x_max":396,"o":"m 131 1014 l 319 1014 l 319 0 l 131 0 l 131 1014 m 396 1181 l 333 1081 l 42 1232 l 125 1365 l 396 1181 z "},"Í":{"ha":450,"x_min":83,"x_max":438,"o":"m 131 1014 l 319 1014 l 319 0 l 131 0 l 131 1014 m 146 1081 l 83 1181 l 354 1365 l 438 1232 l 146 1081 z "},"Î":{"ha":450,"x_min":6,"x_max":446,"o":"m 131 1014 l 319 1014 l 319 0 l 131 0 l 131 1014 m 72 1089 l 6 1156 l 183 1360 l 268 1360 l 446 1156 l 379 1089 l 225 1206 l 72 1089 z "},"Ï":{"ha":450,"x_min":-21,"x_max":471,"o":"m 131 1014 l 319 1014 l 319 0 l 131 0 l 131 1014 m 125 1121 q 115 1117 125 1121 q 72 1113 104 1113 q 21 1121 40 1113 q -7 1146 1 1129 q -21 1206 -21 1174 q -18 1252 -21 1238 q -7 1283 -15 1267 q 72 1319 10 1319 q 154 1283 138 1319 q 168 1224 168 1256 q 165 1177 168 1192 q 154 1146 163 1163 q 125 1121 146 1129 m 428 1121 q 417 1117 428 1121 q 375 1113 407 1113 q 324 1121 343 1113 q 296 1146 304 1129 q 282 1206 282 1174 q 285 1252 282 1238 q 296 1283 288 1267 q 375 1319 313 1319 q 457 1283 440 1319 q 471 1224 471 1256 q 468 1177 471 1192 q 457 1146 465 1163 q 428 1121 449 1129 z "},"Ð":{"ha":969,"x_min":72,"x_max":878,"o":"m 72 439 l 72 567 l 131 567 l 131 1014 l 468 1014 q 801 864 714 1014 q 861 707 844 792 q 878 519 878 622 q 868 344 878 415 q 831 206 858 274 q 760 96 804 139 q 468 0 661 0 l 131 0 l 131 439 l 72 439 m 443 868 l 319 868 l 319 567 l 561 567 l 561 439 l 319 439 l 319 146 l 443 146 q 644 253 592 146 q 689 507 689 346 q 644 761 689 668 q 443 868 592 868 z "},"Ñ":{"ha":1051,"x_min":131,"x_max":921,"o":"m 732 1014 l 921 1014 l 921 0 l 721 0 l 319 689 l 319 0 l 131 0 l 131 1014 l 331 1014 l 732 324 l 732 1014 m 783 1300 q 724 1175 760 1213 q 647 1138 689 1138 q 540 1163 606 1138 q 454 1188 475 1188 q 396 1126 414 1188 l 292 1160 q 351 1285 315 1247 q 428 1322 386 1322 q 535 1297 469 1322 q 622 1272 601 1272 q 681 1333 663 1272 l 783 1300 z "},"Ò":{"ha":985,"x_min":78,"x_max":907,"o":"m 826 135 q 804 97 826 135 q 698 20 782 60 q 503 -19 614 -19 q 319 8 393 -19 q 200 80 246 35 q 126 194 154 125 q 78 507 78 317 q 96 714 78 625 q 158 878 114 803 q 492 1033 247 1033 q 858 818 769 1033 q 907 507 907 697 q 889 299 907 388 q 826 135 871 210 m 492 133 q 668 232 618 133 q 718 507 718 331 q 668 782 718 683 q 492 881 618 881 q 310 772 358 881 q 267 507 267 674 q 379 161 267 229 q 492 133 425 133 m 663 1181 l 600 1081 l 308 1232 l 392 1365 l 663 1181 z "},"Ó":{"ha":985,"x_min":78,"x_max":907,"o":"m 826 135 q 804 97 826 135 q 698 20 782 60 q 503 -19 614 -19 q 319 8 393 -19 q 200 80 246 35 q 126 194 154 125 q 78 507 78 317 q 96 714 78 625 q 158 878 114 803 q 492 1033 247 1033 q 858 818 769 1033 q 907 507 907 697 q 889 299 907 388 q 826 135 871 210 m 492 133 q 668 232 618 133 q 718 507 718 331 q 668 782 718 683 q 492 881 618 881 q 310 772 358 881 q 267 507 267 674 q 379 161 267 229 q 492 133 425 133 m 385 1081 l 322 1181 l 593 1365 l 676 1232 l 385 1081 z "},"Ô":{"ha":985,"x_min":78,"x_max":907,"o":"m 826 135 q 804 97 826 135 q 698 20 782 60 q 503 -19 614 -19 q 319 8 393 -19 q 200 80 246 35 q 126 194 154 125 q 78 507 78 317 q 96 714 78 625 q 158 878 114 803 q 492 1033 247 1033 q 858 818 769 1033 q 907 507 907 697 q 889 299 907 388 q 826 135 871 210 m 492 133 q 668 232 618 133 q 718 507 718 331 q 668 782 718 683 q 492 881 618 881 q 310 772 358 881 q 267 507 267 674 q 379 161 267 229 q 492 133 425 133 m 339 1089 l 272 1156 l 450 1360 l 535 1360 l 713 1156 l 646 1089 l 492 1206 l 339 1089 z "},"Õ":{"ha":985,"x_min":78,"x_max":907,"o":"m 826 135 q 804 97 826 135 q 698 20 782 60 q 503 -19 614 -19 q 319 8 393 -19 q 200 80 246 35 q 126 194 154 125 q 78 507 78 317 q 96 714 78 625 q 158 878 114 803 q 492 1033 247 1033 q 858 818 769 1033 q 907 507 907 697 q 889 299 907 388 q 826 135 871 210 m 492 133 q 668 232 618 133 q 718 507 718 331 q 668 782 718 683 q 492 881 618 881 q 310 772 358 881 q 267 507 267 674 q 379 161 267 229 q 492 133 425 133 m 738 1300 q 678 1175 714 1213 q 601 1138 643 1138 q 494 1163 560 1138 q 408 1188 429 1188 q 350 1126 368 1188 l 246 1160 q 305 1285 269 1247 q 382 1322 340 1322 q 490 1297 424 1322 q 576 1272 556 1272 q 635 1333 617 1272 l 738 1300 z "},"Ö":{"ha":985,"x_min":78,"x_max":907,"o":"m 826 135 q 804 97 826 135 q 698 20 782 60 q 503 -19 614 -19 q 319 8 393 -19 q 200 80 246 35 q 126 194 154 125 q 78 507 78 317 q 96 714 78 625 q 158 878 114 803 q 492 1033 247 1033 q 858 818 769 1033 q 907 507 907 697 q 889 299 907 388 q 826 135 871 210 m 492 133 q 668 232 618 133 q 718 507 718 331 q 668 782 718 683 q 492 881 618 881 q 310 772 358 881 q 267 507 267 674 q 379 161 267 229 q 492 133 425 133 m 392 1121 q 381 1117 392 1121 q 339 1113 371 1113 q 288 1121 307 1113 q 260 1146 268 1129 q 246 1206 246 1174 q 249 1252 246 1238 q 260 1283 251 1267 q 339 1319 276 1319 q 421 1283 404 1319 q 435 1224 435 1256 q 432 1177 435 1192 q 421 1146 429 1163 q 392 1121 413 1129 m 694 1121 q 684 1117 694 1121 q 642 1113 674 1113 q 590 1121 610 1113 q 563 1146 571 1129 q 549 1206 549 1174 q 551 1252 549 1238 q 563 1283 554 1267 q 642 1319 579 1319 q 724 1283 707 1319 q 738 1224 738 1256 q 735 1177 738 1192 q 724 1146 732 1163 q 694 1121 715 1129 z "},"×":{"ha":806,"x_min":132,"x_max":674,"o":"m 224 171 l 132 263 l 313 442 l 132 621 l 224 713 l 403 532 l 582 713 l 674 621 l 493 442 l 674 263 l 582 171 l 403 351 l 224 171 z "},"Ø":{"ha":985,"x_min":78,"x_max":907,"o":"m 78 519 q 96 714 78 625 q 158 878 114 803 q 492 1033 247 1033 q 554 1031 515 1033 l 582 1149 l 700 1149 l 667 1006 q 853 828 799 956 q 907 507 907 700 q 889 299 907 388 q 826 135 871 210 q 492 -19 735 -19 q 428 -15 457 -19 l 401 -131 l 285 -131 l 317 7 q 125 194 179 57 q 78 519 78 321 m 492 133 q 668 232 618 133 q 718 507 718 331 q 626 833 718 753 l 463 135 q 492 133 472 133 m 519 879 l 492 881 q 310 772 358 881 q 267 507 267 674 q 356 179 267 260 l 519 879 z "},"Ù":{"ha":976,"x_min":110,"x_max":867,"o":"m 678 1014 l 867 1014 l 867 335 q 843 175 867 242 q 785 72 819 108 q 696 13 750 35 q 595 -14 642 -8 q 488 -19 549 -19 q 380 -14 426 -19 q 279 13 333 -8 q 191 72 225 35 q 133 175 157 108 q 110 335 110 242 l 110 1014 l 299 1014 l 299 349 q 349 177 299 219 q 488 135 399 135 q 560 142 531 135 q 618 169 589 149 q 678 349 678 213 l 678 1014 m 622 1181 l 560 1081 l 268 1232 l 351 1365 l 622 1181 z "},"Ú":{"ha":976,"x_min":110,"x_max":867,"o":"m 678 1014 l 867 1014 l 867 335 q 843 175 867 242 q 785 72 819 108 q 696 13 750 35 q 595 -14 642 -8 q 488 -19 549 -19 q 380 -14 426 -19 q 279 13 333 -8 q 191 72 225 35 q 133 175 157 108 q 110 335 110 242 l 110 1014 l 299 1014 l 299 349 q 349 177 299 219 q 488 135 399 135 q 560 142 531 135 q 618 169 589 149 q 678 349 678 213 l 678 1014 m 456 1081 l 393 1181 l 664 1365 l 747 1232 l 456 1081 z "},"Û":{"ha":976,"x_min":110,"x_max":867,"o":"m 678 1014 l 867 1014 l 867 335 q 843 175 867 242 q 785 72 819 108 q 696 13 750 35 q 595 -14 642 -8 q 488 -19 549 -19 q 380 -14 426 -19 q 279 13 333 -8 q 191 72 225 35 q 133 175 157 108 q 110 335 110 242 l 110 1014 l 299 1014 l 299 349 q 349 177 299 219 q 488 135 399 135 q 560 142 531 135 q 618 169 589 149 q 678 349 678 213 l 678 1014 m 339 1089 l 272 1156 l 450 1360 l 535 1360 l 713 1156 l 646 1089 l 492 1206 l 339 1089 z "},"Ü":{"ha":976,"x_min":110,"x_max":867,"o":"m 678 1014 l 867 1014 l 867 335 q 843 175 867 242 q 785 72 819 108 q 696 13 750 35 q 595 -14 642 -8 q 488 -19 549 -19 q 380 -14 426 -19 q 279 13 333 -8 q 191 72 225 35 q 133 175 157 108 q 110 335 110 242 l 110 1014 l 299 1014 l 299 349 q 349 177 299 219 q 488 135 399 135 q 560 142 531 135 q 618 169 589 149 q 678 349 678 213 l 678 1014 m 393 1121 q 383 1117 393 1121 q 340 1113 372 1113 q 289 1121 308 1113 q 261 1146 269 1129 q 247 1206 247 1174 q 250 1252 247 1238 q 261 1283 253 1267 q 340 1319 278 1319 q 422 1283 406 1319 q 436 1224 436 1256 q 433 1177 436 1192 q 422 1146 431 1163 q 393 1121 414 1129 m 696 1121 q 685 1117 696 1121 q 643 1113 675 1113 q 592 1121 611 1113 q 564 1146 572 1129 q 550 1206 550 1174 q 553 1252 550 1238 q 564 1283 556 1267 q 643 1319 581 1319 q 725 1283 708 1319 q 739 1224 739 1256 q 736 1177 739 1192 q 725 1146 733 1163 q 696 1121 717 1129 z "},"Ý":{"ha":797,"x_min":-8,"x_max":806,"o":"m 493 0 l 304 0 l 304 353 l -8 1014 l 181 1014 l 399 529 l 617 1014 l 806 1014 l 493 353 l 493 0 m 313 1081 l 250 1181 l 521 1365 l 604 1232 l 313 1081 z "},"Þ":{"ha":815,"x_min":131,"x_max":790,"o":"m 475 190 l 319 190 l 319 0 l 131 0 l 131 1014 l 319 1014 l 319 822 l 475 822 q 718 734 646 822 q 790 506 790 646 q 718 278 790 367 q 475 190 646 190 m 319 343 l 444 343 q 567 386 532 343 q 601 506 601 429 q 567 626 601 583 q 444 669 532 669 l 319 669 l 319 343 z "},"ß":{"ha":917,"x_min":144,"x_max":897,"o":"m 689 535 q 843 444 789 514 q 897 257 897 375 q 830 60 897 139 q 630 -19 763 -19 q 439 49 497 -19 q 381 271 381 117 l 532 271 q 551 160 532 192 q 619 128 569 128 q 711 288 711 128 q 678 405 711 369 q 568 440 644 440 l 428 440 l 428 578 l 500 578 q 589 621 560 578 q 618 733 618 664 q 471 889 618 889 q 331 733 331 889 l 331 0 l 144 0 l 144 733 q 486 1036 144 1036 q 722 960 640 1036 q 804 753 804 883 q 689 535 804 624 z "},"à":{"ha":829,"x_min":64,"x_max":713,"o":"m 410 814 q 713 538 713 814 l 713 0 l 592 0 l 539 97 q 279 -19 428 -19 q 119 40 174 -19 q 64 198 64 99 q 126 358 64 297 q 360 444 189 419 l 526 469 l 526 536 q 399 671 526 671 q 256 549 278 671 l 111 592 q 410 814 164 814 m 339 117 q 526 210 433 117 l 526 353 l 393 329 q 274 281 303 314 q 244 206 244 247 q 269 140 244 164 q 339 117 294 117 m 572 961 l 510 861 l 218 1013 l 301 1146 l 572 961 z "},"á":{"ha":829,"x_min":64,"x_max":713,"o":"m 410 814 q 713 538 713 814 l 713 0 l 592 0 l 539 97 q 279 -19 428 -19 q 119 40 174 -19 q 64 198 64 99 q 126 358 64 297 q 360 444 189 419 l 526 469 l 526 536 q 399 671 526 671 q 256 549 278 671 l 111 592 q 410 814 164 814 m 339 117 q 526 210 433 117 l 526 353 l 393 329 q 274 281 303 314 q 244 206 244 247 q 269 140 244 164 q 339 117 294 117 m 358 861 l 296 961 l 567 1146 l 650 1013 l 358 861 z "},"â":{"ha":829,"x_min":64,"x_max":713,"o":"m 410 814 q 713 538 713 814 l 713 0 l 592 0 l 539 97 q 279 -19 428 -19 q 119 40 174 -19 q 64 198 64 99 q 126 358 64 297 q 360 444 189 419 l 526 469 l 526 536 q 399 671 526 671 q 256 549 278 671 l 111 592 q 410 814 164 814 m 339 117 q 526 210 433 117 l 526 353 l 393 329 q 274 281 303 314 q 244 206 244 247 q 269 140 244 164 q 339 117 294 117 m 249 869 l 182 936 l 360 1140 l 444 1140 l 622 936 l 556 869 l 401 986 l 249 869 z "},"ã":{"ha":829,"x_min":64,"x_max":713,"o":"m 410 814 q 713 538 713 814 l 713 0 l 592 0 l 539 97 q 279 -19 428 -19 q 119 40 174 -19 q 64 198 64 99 q 126 358 64 297 q 360 444 189 419 l 526 469 l 526 536 q 399 671 526 671 q 256 549 278 671 l 111 592 q 410 814 164 814 m 339 117 q 526 210 433 117 l 526 353 l 393 329 q 274 281 303 314 q 244 206 244 247 q 269 140 244 164 q 339 117 294 117 m 647 1081 q 588 956 624 993 q 511 918 553 918 q 404 943 469 918 q 318 968 339 968 q 260 907 278 968 l 156 940 q 215 1065 179 1028 q 292 1103 250 1103 q 399 1078 333 1103 q 486 1053 465 1053 q 544 1114 526 1053 l 647 1081 z "},"ä":{"ha":829,"x_min":64,"x_max":713,"o":"m 410 814 q 713 538 713 814 l 713 0 l 592 0 l 539 97 q 279 -19 428 -19 q 119 40 174 -19 q 64 198 64 99 q 126 358 64 297 q 360 444 189 419 l 526 469 l 526 536 q 399 671 526 671 q 256 549 278 671 l 111 592 q 410 814 164 814 m 339 117 q 526 210 433 117 l 526 353 l 393 329 q 274 281 303 314 q 244 206 244 247 q 269 140 244 164 q 339 117 294 117 m 325 901 q 315 897 325 901 q 272 893 304 893 q 221 901 240 893 q 193 926 201 910 q 179 986 179 954 q 182 1033 179 1018 q 193 1064 185 1047 q 272 1100 210 1100 q 354 1064 338 1100 q 368 1004 368 1036 q 365 958 368 972 q 354 926 363 943 q 325 901 346 910 m 628 901 q 617 897 628 901 q 575 893 607 893 q 524 901 543 893 q 496 926 504 910 q 482 986 482 954 q 485 1033 482 1018 q 496 1064 488 1047 q 575 1100 513 1100 q 657 1064 640 1100 q 671 1004 671 1036 q 668 958 671 972 q 657 926 665 943 q 628 901 649 910 z "},"å":{"ha":829,"x_min":64,"x_max":713,"o":"m 410 814 q 713 538 713 814 l 713 0 l 592 0 l 539 97 q 279 -19 428 -19 q 119 40 174 -19 q 64 198 64 99 q 126 358 64 297 q 360 444 189 419 l 526 469 l 526 536 q 399 671 526 671 q 256 549 278 671 l 111 592 q 410 814 164 814 m 339 117 q 526 210 433 117 l 526 353 l 393 329 q 274 281 303 314 q 244 206 244 247 q 269 140 244 164 q 339 117 294 117 m 428 939 q 485 1007 485 939 q 428 1075 485 1075 q 376 1007 376 1075 q 428 939 376 939 m 428 850 q 274 1006 274 850 q 428 1163 274 1163 q 553 1116 518 1163 q 588 1006 588 1069 q 553 896 588 942 q 428 850 518 850 z "},"æ":{"ha":1253,"x_min":63,"x_max":1210,"o":"m 876 -19 q 579 117 658 -19 q 274 -19 443 -19 q 117 40 171 -19 q 63 197 63 99 q 124 358 63 296 q 354 447 185 419 l 515 474 l 515 536 q 394 671 515 671 q 251 549 274 671 l 106 588 q 404 814 158 814 q 635 738 560 814 q 871 814 719 814 q 1147 689 1072 814 q 1210 411 1210 582 l 1210 361 l 701 361 q 744 177 703 231 q 882 124 786 124 q 1046 235 1036 124 l 1199 229 q 876 -19 1176 -19 m 333 113 q 540 207 449 113 q 521 347 522 289 l 388 322 q 270 274 299 306 q 242 201 242 242 q 266 136 242 160 q 333 113 290 113 m 983 626 q 966 648 983 626 q 869 671 949 671 q 753 627 790 671 q 706 488 717 583 l 1026 488 q 983 626 1018 581 z "},"ç":{"ha":744,"x_min":50,"x_max":708,"o":"m 272 604 q 254 571 272 604 q 236 397 236 538 q 272 190 236 257 q 395 124 307 124 q 522 160 483 124 q 563 274 560 196 l 708 267 q 626 53 700 125 q 382 -19 551 -19 q 111 110 183 -19 q 63 240 76 172 q 50 398 50 308 q 63 556 50 488 q 111 686 76 625 q 382 814 182 814 q 624 745 550 814 q 707 540 697 676 l 563 521 q 522 635 560 599 q 395 671 483 671 q 272 604 307 671 m 207 -181 l 324 -181 q 368 -232 324 -232 q 399 -223 388 -232 q 412 -204 410 -214 q 414 -179 414 -194 q 364 -128 414 -136 l 290 -115 l 303 -49 l 364 -49 q 485 -77 443 -49 q 528 -182 528 -106 q 492 -297 528 -258 q 367 -335 457 -335 q 207 -181 207 -335 z "},"è":{"ha":782,"x_min":50,"x_max":739,"o":"m 406 -19 q 132 84 214 -19 q 50 397 50 188 q 400 814 50 814 q 675 689 601 814 q 739 411 739 582 l 739 361 l 231 361 q 274 177 232 231 q 411 124 315 124 q 575 235 565 124 l 728 229 q 406 -19 706 -19 m 513 626 q 495 648 513 626 q 399 671 478 671 q 283 627 319 671 q 235 488 246 583 l 556 488 q 513 626 547 581 m 567 961 l 504 861 l 213 1013 l 296 1146 l 567 961 z "},"é":{"ha":782,"x_min":50,"x_max":739,"o":"m 406 -19 q 132 84 214 -19 q 50 397 50 188 q 400 814 50 814 q 675 689 601 814 q 739 411 739 582 l 739 361 l 231 361 q 274 177 232 231 q 411 124 315 124 q 575 235 565 124 l 728 229 q 406 -19 706 -19 m 513 626 q 495 648 513 626 q 399 671 478 671 q 283 627 319 671 q 235 488 246 583 l 556 488 q 513 626 547 581 m 342 861 l 279 961 l 550 1146 l 633 1013 l 342 861 z "},"ê":{"ha":782,"x_min":50,"x_max":739,"o":"m 406 -19 q 132 84 214 -19 q 50 397 50 188 q 400 814 50 814 q 675 689 601 814 q 739 411 739 582 l 739 361 l 231 361 q 274 177 232 231 q 411 124 315 124 q 575 235 565 124 l 728 229 q 406 -19 706 -19 m 513 626 q 495 648 513 626 q 399 671 478 671 q 283 627 319 671 q 235 488 246 583 l 556 488 q 513 626 547 581 m 243 869 l 176 936 l 354 1140 l 439 1140 l 617 936 l 550 869 l 396 986 l 243 869 z "},"ë":{"ha":779,"x_min":47,"x_max":736,"o":"m 403 -19 q 129 84 211 -19 q 47 397 47 188 q 397 814 47 814 q 672 689 599 814 q 736 411 736 582 l 736 361 l 228 361 q 271 177 229 231 q 408 124 313 124 q 572 235 563 124 l 725 229 q 403 -19 703 -19 m 510 626 q 492 648 510 626 q 396 671 475 671 q 280 627 317 671 q 232 488 243 583 l 553 488 q 510 626 544 581 m 293 901 q 283 897 293 901 q 240 893 272 893 q 189 901 208 893 q 161 926 169 910 q 147 986 147 954 q 150 1033 147 1018 q 161 1064 153 1047 q 240 1100 178 1100 q 322 1064 306 1100 q 336 1004 336 1036 q 333 958 336 972 q 322 926 331 943 q 293 901 314 910 m 596 901 q 585 897 596 901 q 543 893 575 893 q 492 901 511 893 q 464 926 472 910 q 450 986 450 954 q 453 1033 450 1018 q 464 1064 456 1047 q 543 1100 481 1100 q 625 1064 608 1100 q 639 1004 639 1036 q 636 958 639 972 q 625 926 633 943 q 596 901 617 910 z "},"ì":{"ha":447,"x_min":26,"x_max":381,"o":"m 131 794 l 317 794 l 317 0 l 131 0 l 131 794 m 381 961 l 318 861 l 26 1013 l 110 1146 l 381 961 z "},"í":{"ha":447,"x_min":75,"x_max":429,"o":"m 131 794 l 317 794 l 317 0 l 131 0 l 131 794 m 138 861 l 75 961 l 346 1146 l 429 1013 l 138 861 z "},"î":{"ha":447,"x_min":-10,"x_max":431,"o":"m 131 794 l 317 794 l 317 0 l 131 0 l 131 794 m 57 869 l -10 936 l 168 1140 l 253 1140 l 431 936 l 364 869 l 210 986 l 57 869 z "},"ï":{"ha":447,"x_min":-22,"x_max":469,"o":"m 131 794 l 317 794 l 317 0 l 131 0 l 131 794 m 124 901 q 113 897 124 901 q 71 893 103 893 q 19 901 39 893 q -8 926 0 910 q -22 986 -22 954 q -19 1033 -22 1018 q -8 1064 -17 1047 q 71 1100 8 1100 q 153 1064 136 1100 q 167 1004 167 1036 q 164 958 167 972 q 153 926 161 943 q 124 901 144 910 m 426 901 q 416 897 426 901 q 374 893 406 893 q 322 901 342 893 q 294 926 303 910 q 281 986 281 954 q 283 1033 281 1018 q 294 1064 286 1047 q 374 1100 311 1100 q 456 1064 439 1100 q 469 1004 469 1036 q 467 958 469 972 q 456 926 464 943 q 426 901 447 910 z "},"ð":{"ha":822,"x_min":50,"x_max":772,"o":"m 772 371 l 772 342 q 561 3 772 72 q 411 -19 496 -19 q 261 2 326 -19 q 157 58 196 24 q 93 142 118 93 q 50 342 50 225 q 119 583 50 482 q 232 671 157 639 q 398 703 307 703 q 556 656 489 703 q 485 810 531 736 l 350 756 l 350 876 l 415 903 l 364 957 l 451 1061 q 556 958 510 1011 l 742 1032 l 742 911 l 625 865 q 772 371 772 643 m 236 342 q 236 230 236 342 q 411 118 236 118 q 586 342 586 118 q 411 565 586 565 q 236 342 236 565 z "},"ñ":{"ha":921,"x_min":131,"x_max":804,"o":"m 278 722 q 545 814 408 814 q 743 747 682 814 q 804 561 804 679 l 804 0 l 618 0 l 618 542 q 592 642 618 613 q 503 671 567 671 q 317 608 403 671 l 317 0 l 131 0 l 131 794 l 218 794 l 278 722 m 733 1081 q 674 956 710 993 q 597 918 639 918 q 490 943 556 918 q 404 968 425 968 q 346 907 364 968 l 242 940 q 301 1065 265 1028 q 378 1103 336 1103 q 485 1078 419 1103 q 572 1053 551 1053 q 631 1114 613 1053 l 733 1081 z "},"ò":{"ha":822,"x_min":50,"x_max":772,"o":"m 272 193 q 290 158 272 193 q 411 124 308 124 q 550 193 514 124 q 586 397 586 263 q 550 601 586 532 q 411 671 514 671 q 272 601 308 671 q 236 397 236 532 q 272 193 236 263 m 772 397 q 772 189 772 397 q 411 -19 772 -19 q 50 397 50 -19 q 411 814 50 814 q 772 397 772 814 m 582 961 l 519 861 l 228 1013 l 311 1146 l 582 961 z "},"ó":{"ha":822,"x_min":50,"x_max":772,"o":"m 272 193 q 290 158 272 193 q 411 124 308 124 q 550 193 514 124 q 586 397 586 263 q 550 601 586 532 q 411 671 514 671 q 272 601 308 671 q 236 397 236 532 q 272 193 236 263 m 772 397 q 772 189 772 397 q 411 -19 772 -19 q 50 397 50 -19 q 411 814 50 814 q 772 397 772 814 m 356 861 l 293 961 l 564 1146 l 647 1013 l 356 861 z "},"ô":{"ha":822,"x_min":50,"x_max":772,"o":"m 272 193 q 290 158 272 193 q 411 124 308 124 q 550 193 514 124 q 586 397 586 263 q 550 601 586 532 q 411 671 514 671 q 272 601 308 671 q 236 397 236 532 q 272 193 236 263 m 772 397 q 772 189 772 397 q 411 -19 772 -19 q 50 397 50 -19 q 411 814 50 814 q 772 397 772 814 m 257 869 l 190 936 l 368 1140 l 453 1140 l 631 936 l 564 869 l 410 986 l 257 869 z "},"õ":{"ha":822,"x_min":50,"x_max":772,"o":"m 272 193 q 290 158 272 193 q 411 124 308 124 q 550 193 514 124 q 586 397 586 263 q 550 601 586 532 q 411 671 514 671 q 272 601 308 671 q 236 397 236 532 q 272 193 236 263 m 772 397 q 772 189 772 397 q 411 -19 772 -19 q 50 397 50 -19 q 411 814 50 814 q 772 397 772 814 m 657 1081 q 598 956 633 993 q 521 918 563 918 q 414 943 479 918 q 328 968 349 968 q 269 907 288 968 l 165 940 q 224 1065 189 1028 q 301 1103 260 1103 q 409 1078 343 1103 q 496 1053 475 1053 q 554 1114 536 1053 l 657 1081 z "},"ö":{"ha":822,"x_min":50,"x_max":772,"o":"m 272 193 q 290 158 272 193 q 411 124 308 124 q 550 193 514 124 q 586 397 586 263 q 550 601 586 532 q 411 671 514 671 q 272 601 308 671 q 236 397 236 532 q 272 193 236 263 m 772 397 q 772 189 772 397 q 411 -19 772 -19 q 50 397 50 -19 q 411 814 50 814 q 772 397 772 814 m 311 901 q 301 897 311 901 q 258 893 290 893 q 207 901 226 893 q 179 926 188 910 q 165 986 165 954 q 168 1033 165 1018 q 179 1064 171 1047 q 258 1100 196 1100 q 340 1064 324 1100 q 354 1004 354 1036 q 351 958 354 972 q 340 926 349 943 q 311 901 332 910 m 614 901 q 603 897 614 901 q 561 893 593 893 q 510 901 529 893 q 482 926 490 910 q 468 986 468 954 q 471 1033 468 1018 q 482 1064 474 1047 q 561 1100 499 1100 q 643 1064 626 1100 q 657 1004 657 1036 q 654 958 657 972 q 643 926 651 943 q 614 901 635 910 z "},"÷":{"ha":806,"x_min":119,"x_max":686,"o":"m 119 378 l 119 506 l 686 506 l 686 378 l 119 378 m 478 117 q 475 108 478 117 q 451 91 471 100 q 402 82 432 82 q 353 91 372 82 q 326 117 335 100 q 316 148 318 133 q 314 185 314 163 q 316 222 314 207 q 326 254 318 238 q 401 289 344 289 q 478 254 463 289 q 492 194 492 225 q 489 148 492 163 q 478 117 486 133 m 478 615 q 475 607 478 615 q 451 590 471 599 q 402 581 432 581 q 353 590 372 581 q 326 615 335 599 q 316 647 318 632 q 314 683 314 661 q 316 721 314 706 q 326 753 318 736 q 401 788 344 788 q 478 753 463 788 q 492 692 492 724 q 489 647 492 661 q 478 615 486 632 z "},"ø":{"ha":822,"x_min":50,"x_max":772,"o":"m 50 397 q 411 814 50 814 q 463 811 429 814 l 501 953 l 619 953 l 575 786 q 772 397 772 707 q 411 -19 772 -19 q 358 -17 392 -19 l 321 -160 l 204 -160 l 249 7 q 50 397 50 86 m 411 671 q 272 601 308 671 q 236 378 236 532 q 292 167 236 225 l 425 671 l 411 671 m 411 124 q 550 193 514 124 q 586 414 586 263 q 532 625 586 565 l 397 124 l 411 124 z "},"ù":{"ha":922,"x_min":117,"x_max":792,"o":"m 361 -19 q 117 233 117 -19 l 117 794 l 303 794 l 303 264 q 331 158 303 192 q 426 124 360 124 q 606 213 521 124 l 606 794 l 792 794 l 792 0 l 671 0 l 618 96 q 361 -19 510 -19 m 594 961 l 532 861 l 240 1013 l 324 1146 l 594 961 z "},"ú":{"ha":922,"x_min":117,"x_max":792,"o":"m 361 -19 q 117 233 117 -19 l 117 794 l 303 794 l 303 264 q 331 158 303 192 q 426 124 360 124 q 606 213 521 124 l 606 794 l 792 794 l 792 0 l 671 0 l 618 96 q 361 -19 510 -19 m 415 861 l 353 961 l 624 1146 l 707 1013 l 415 861 z "},"û":{"ha":922,"x_min":117,"x_max":792,"o":"m 361 -19 q 117 233 117 -19 l 117 794 l 303 794 l 303 264 q 331 158 303 192 q 426 124 360 124 q 606 213 521 124 l 606 794 l 792 794 l 792 0 l 671 0 l 618 96 q 361 -19 510 -19 m 313 869 l 246 936 l 424 1140 l 508 1140 l 686 936 l 619 869 l 465 986 l 313 869 z "},"ü":{"ha":922,"x_min":117,"x_max":792,"o":"m 361 -19 q 117 233 117 -19 l 117 794 l 303 794 l 303 264 q 331 158 303 192 q 426 124 360 124 q 606 213 521 124 l 606 794 l 792 794 l 792 0 l 671 0 l 618 96 q 361 -19 510 -19 m 365 901 q 355 897 365 901 q 313 893 344 893 q 261 901 281 893 q 233 926 242 910 q 219 986 219 954 q 222 1033 219 1018 q 233 1064 225 1047 q 313 1100 250 1100 q 394 1064 378 1100 q 408 1004 408 1036 q 406 958 408 972 q 394 926 403 943 q 365 901 386 910 m 668 901 q 658 897 668 901 q 615 893 647 893 q 564 901 583 893 q 536 926 544 910 q 522 986 522 954 q 525 1033 522 1018 q 536 1064 528 1047 q 615 1100 553 1100 q 697 1064 681 1100 q 711 1004 711 1036 q 708 958 711 972 q 697 926 706 943 q 668 901 689 910 z "},"ý":{"ha":753,"x_min":6,"x_max":746,"o":"m 349 -329 l 183 -304 l 296 -11 l 6 794 l 193 794 l 383 242 l 556 794 l 746 794 l 349 -329 m 308 861 l 246 961 l 517 1146 l 600 1013 l 308 861 z "},"þ":{"ha":881,"x_min":131,"x_max":831,"o":"m 514 814 q 831 397 831 814 q 513 -19 831 -19 q 317 15 421 -19 l 317 -285 l 131 -285 l 131 1014 l 317 1031 l 317 753 q 514 814 414 814 m 467 669 q 317 615 388 669 l 317 151 q 478 125 392 125 q 644 397 644 125 q 467 669 644 669 z "},"ÿ":{"ha":753,"x_min":6,"x_max":746,"o":"m 349 -329 l 183 -304 l 296 -11 l 6 794 l 193 794 l 383 242 l 556 794 l 746 794 l 349 -329 m 308 901 q 298 897 308 901 q 256 893 288 893 q 204 901 224 893 q 176 926 185 910 q 163 986 163 954 q 165 1033 163 1018 q 176 1064 168 1047 q 256 1100 193 1100 q 338 1064 321 1100 q 351 1004 351 1036 q 349 958 351 972 q 338 926 346 943 q 308 901 329 910 m 611 901 q 601 897 611 901 q 558 893 590 893 q 507 901 526 893 q 479 926 488 910 q 465 986 465 954 q 468 1033 465 1018 q 479 1064 471 1047 q 558 1100 496 1100 q 640 1064 624 1100 q 654 1004 654 1036 q 651 958 654 972 q 640 926 649 943 q 611 901 632 910 z "},"ı":{"ha":447,"x_min":131,"x_max":317,"o":"m 131 794 l 317 794 l 317 0 l 131 0 l 131 794 z "},"Ł":{"ha":671,"x_min":32,"x_max":665,"o":"m 131 1014 l 319 1014 l 319 624 l 424 665 l 424 544 l 319 503 l 319 146 l 665 146 l 665 0 l 131 0 l 131 428 l 32 389 l 32 510 l 131 549 l 131 1014 z "},"ł":{"ha":447,"x_min":28,"x_max":419,"o":"m 317 0 l 131 0 l 131 429 l 28 389 l 28 510 l 131 550 l 131 1044 l 317 1069 l 317 624 l 419 665 l 419 544 l 317 503 l 317 0 z "},"Œ":{"ha":1318,"x_min":78,"x_max":1271,"o":"m 485 0 q 157 144 244 0 q 78 507 78 276 q 96 710 78 624 q 157 867 114 796 q 485 1014 246 1014 l 1243 1014 l 1243 868 l 814 868 q 890 588 879 769 l 1208 588 l 1208 443 l 892 443 q 814 146 882 247 l 1271 146 l 1271 0 l 485 0 m 314 244 q 338 198 314 244 q 485 151 361 151 q 656 244 608 151 q 704 507 704 336 q 656 770 704 678 q 485 863 608 863 q 314 770 361 863 q 267 507 267 678 q 314 244 267 336 z "},"œ":{"ha":1324,"x_min":50,"x_max":1281,"o":"m 947 -19 q 678 82 760 -19 q 411 -19 590 -19 q 50 397 50 -19 q 411 814 50 814 q 681 710 592 814 q 942 814 767 814 q 1217 689 1143 814 q 1281 411 1281 582 l 1281 361 l 772 361 q 816 177 775 231 q 953 124 857 124 q 1117 235 1107 124 l 1269 229 q 947 -19 1247 -19 m 552 196 q 569 232 552 196 q 586 399 586 268 q 551 601 586 531 q 412 671 515 671 q 272 601 308 671 q 236 397 236 532 q 272 193 236 263 q 413 124 308 124 q 552 196 518 124 m 1097 488 q 1054 626 1089 581 q 941 671 1019 671 q 825 626 863 671 q 778 488 788 582 l 1097 488 z "},"Š":{"ha":838,"x_min":61,"x_max":776,"o":"m 513 576 q 715 474 654 540 q 776 274 776 407 q 685 60 776 140 q 415 -19 593 -19 q 158 56 238 -19 q 61 276 79 132 l 213 300 q 269 173 221 218 q 403 128 317 128 q 588 268 588 128 q 553 358 588 328 q 419 414 518 389 l 340 433 q 142 536 201 468 q 82 740 82 604 q 169 954 82 875 q 428 1033 257 1033 q 676 958 600 1033 q 769 738 751 882 l 619 714 q 442 886 601 886 q 313 848 354 886 q 271 747 271 810 q 303 654 271 685 q 425 600 335 624 l 513 576 m 585 1365 l 651 1299 l 474 1094 l 389 1094 l 211 1299 l 278 1365 l 432 1249 l 585 1365 z "},"š":{"ha":761,"x_min":61,"x_max":700,"o":"m 700 222 q 367 -15 700 -15 q 150 48 221 -15 q 61 232 79 111 l 206 254 q 372 121 221 121 q 522 215 522 121 q 492 274 522 254 q 372 314 463 293 l 308 329 q 131 415 185 358 q 78 578 78 471 q 400 814 78 814 q 608 751 539 814 q 693 567 676 688 l 549 546 q 395 678 533 678 q 257 583 257 678 q 284 524 257 544 q 394 485 311 504 l 467 467 q 645 381 590 436 q 700 222 700 326 m 551 1146 l 618 1079 l 440 875 l 356 875 l 178 1079 l 244 1146 l 399 1029 l 551 1146 z "},"Ÿ":{"ha":797,"x_min":-8,"x_max":806,"o":"m 493 0 l 304 0 l 304 353 l -8 1014 l 181 1014 l 399 529 l 617 1014 l 806 1014 l 493 353 l 493 0 m 299 1121 q 288 1117 299 1121 q 246 1113 278 1113 q 194 1121 214 1113 q 167 1146 175 1129 q 153 1206 153 1174 q 156 1252 153 1238 q 167 1283 158 1267 q 246 1319 183 1319 q 328 1283 311 1319 q 342 1224 342 1256 q 339 1177 342 1192 q 328 1146 336 1163 q 299 1121 319 1129 m 601 1121 q 591 1117 601 1121 q 549 1113 581 1113 q 497 1121 517 1113 q 469 1146 478 1129 q 456 1206 456 1174 q 458 1252 456 1238 q 469 1283 461 1267 q 549 1319 486 1319 q 631 1283 614 1319 q 644 1224 644 1256 q 642 1177 644 1192 q 631 1146 639 1163 q 601 1121 622 1129 z "},"Ž":{"ha":781,"x_min":31,"x_max":750,"o":"m 58 868 l 58 1014 l 736 1014 l 736 894 l 257 146 l 750 146 l 750 0 l 31 0 l 31 119 l 510 868 l 58 868 m 557 1365 l 624 1299 l 446 1094 l 361 1094 l 183 1299 l 250 1365 l 404 1249 l 557 1365 z "},"ž":{"ha":707,"x_min":46,"x_max":661,"o":"m 60 664 l 60 794 l 649 794 l 649 681 l 268 131 l 661 131 l 661 0 l 46 0 l 46 114 l 429 664 l 60 664 m 540 1146 l 607 1079 l 429 875 l 344 875 l 167 1079 l 233 1146 l 388 1029 l 540 1146 z "},"ƒ":{"ha":875,"x_min":144,"x_max":796,"o":"m 624 886 q 494 715 494 886 l 494 540 l 713 540 l 713 415 l 494 415 l 494 28 q 481 -122 494 -64 q 431 -224 468 -181 q 328 -285 394 -267 q 157 -303 261 -303 l 144 -140 q 274 -105 243 -140 q 306 31 306 -69 l 306 415 l 157 415 l 157 540 l 306 540 l 306 715 q 376 955 306 876 q 600 1033 447 1033 q 796 982 714 1033 l 743 851 q 624 886 689 886 z "},"ˆ":{"ha":535,"x_min":47,"x_max":488,"o":"m 114 869 l 47 936 l 225 1140 l 310 1140 l 488 936 l 421 869 l 267 986 l 114 869 z "},"ˇ":{"ha":493,"x_min":26,"x_max":467,"o":"m 400 1146 l 467 1079 l 289 875 l 204 875 l 26 1079 l 93 1146 l 247 1029 l 400 1146 z "},"˘":{"ha":568,"x_min":93,"x_max":475,"o":"m 372 1093 l 475 1093 q 444 950 475 1004 q 283 883 406 883 q 125 950 163 883 q 93 1093 93 1004 l 194 1093 q 212 1020 194 1044 q 283 996 229 996 q 355 1020 338 996 q 372 1093 372 1044 z "},"˙":{"ha":358,"x_min":85,"x_max":296,"o":"m 291 948 q 289 936 291 948 q 261 904 286 925 q 190 883 236 883 q 119 904 143 883 q 90 948 94 925 q 85 1007 85 971 q 90 1067 85 1043 q 119 1111 94 1090 q 190 1132 143 1132 q 261 1111 236 1132 q 291 1067 286 1090 q 296 1007 296 1043 q 291 948 296 971 z "},"˚":{"ha":358,"x_min":22,"x_max":336,"o":"m 176 939 q 233 1007 233 939 q 176 1075 233 1075 q 125 1007 125 1075 q 176 939 125 939 m 176 850 q 22 1006 22 850 q 176 1163 22 1163 q 301 1116 267 1163 q 336 1006 336 1069 q 301 896 336 942 q 176 850 267 850 z "},"˛":{"ha":439,"x_min":36,"x_max":393,"o":"m 196 -322 q 76 -287 117 -322 q 36 -190 36 -251 q 71 -90 36 -128 q 183 -4 106 -53 l 303 68 l 343 8 l 225 -65 q 163 -115 179 -93 q 146 -162 146 -136 q 209 -224 146 -224 q 319 -142 272 -224 l 393 -190 q 196 -322 321 -322 z "},"˜":{"ha":547,"x_min":28,"x_max":519,"o":"m 519 1081 q 460 956 496 993 q 383 918 425 918 q 276 943 342 918 q 190 968 211 968 q 132 907 150 968 l 28 940 q 87 1065 51 1028 q 164 1103 122 1103 q 272 1078 206 1103 q 358 1053 338 1053 q 417 1114 399 1053 l 519 1081 z "},"˝":{"ha":739,"x_min":3,"x_max":736,"o":"m 65 861 l 3 961 l 274 1146 l 357 1013 l 65 861 m 444 861 l 382 961 l 653 1146 l 736 1013 l 444 861 z "},"π":{"ha":906,"x_min":64,"x_max":842,"o":"m 64 674 l 64 794 l 842 794 l 842 674 l 757 674 l 757 0 l 571 0 l 571 674 l 333 674 l 333 0 l 147 0 l 147 674 l 64 674 z "},"–":{"ha":783,"x_min":86,"x_max":697,"o":"m 86 378 l 86 506 l 697 506 l 697 378 l 86 378 z "},"—":{"ha":1246,"x_min":86,"x_max":1160,"o":"m 86 378 l 86 506 l 1160 506 l 1160 378 l 86 378 z "},"‘":{"ha":381,"x_min":78,"x_max":303,"o":"m 239 921 q 253 864 239 906 q 267 793 267 822 q 264 748 267 764 q 253 714 261 732 q 176 679 238 679 q 78 788 78 679 q 254 1088 78 957 l 303 1031 q 239 921 239 983 z "},"’":{"ha":347,"x_min":78,"x_max":303,"o":"m 142 844 q 128 902 142 861 q 114 973 114 943 q 117 1019 114 1003 q 128 1053 119 1035 q 204 1088 143 1088 q 303 979 303 1088 q 126 679 303 810 l 78 735 q 142 844 142 782 z "},"‚":{"ha":314,"x_min":26,"x_max":251,"o":"m 90 -25 q 76 34 90 -7 q 63 100 63 75 q 65 140 63 125 q 76 172 68 156 q 146 207 94 207 q 220 190 197 207 q 247 153 243 172 q 251 103 251 133 q 75 -192 251 -51 l 26 -135 q 90 -25 90 -74 z "},"“":{"ha":632,"x_min":78,"x_max":554,"o":"m 239 921 q 253 864 239 906 q 267 789 267 822 q 262 735 267 756 q 235 697 257 714 q 165 679 214 679 q 97 709 117 679 q 78 788 78 739 q 254 1088 78 957 l 303 1031 q 239 921 239 974 m 490 921 q 504 864 490 906 q 518 793 518 822 q 515 748 518 764 q 506 714 513 732 q 428 679 489 679 q 329 788 329 679 q 506 1088 329 957 l 554 1031 q 490 921 490 983 z "},"”":{"ha":632,"x_min":78,"x_max":554,"o":"m 393 844 q 379 902 393 861 q 365 977 365 943 q 370 1032 365 1011 q 397 1070 375 1053 q 467 1088 418 1088 q 535 1058 515 1088 q 554 979 554 1028 q 378 679 554 810 l 329 735 q 393 844 393 792 m 142 844 q 128 902 142 861 q 114 973 114 943 q 117 1019 114 1003 q 128 1053 119 1035 q 204 1088 143 1088 q 303 979 303 1088 q 126 679 303 810 l 78 735 q 142 844 142 782 z "},"„":{"ha":565,"x_min":26,"x_max":503,"o":"m 342 -26 q 328 31 342 -10 q 314 106 314 72 q 319 161 314 140 q 345 199 324 182 q 415 217 367 217 q 483 187 464 217 q 503 108 503 157 q 326 -192 503 -61 l 278 -136 q 342 -26 342 -79 m 90 -26 q 76 31 90 -10 q 63 102 63 72 q 65 148 63 132 q 75 181 68 164 q 153 217 92 217 q 251 108 251 217 q 75 -192 251 -61 l 26 -136 q 90 -26 90 -89 z "},"†":{"ha":656,"x_min":17,"x_max":639,"o":"m 639 794 l 639 647 l 564 647 l 418 663 l 394 0 l 261 0 l 238 663 l 92 647 l 17 647 l 17 794 l 92 794 l 233 779 l 225 1014 l 431 1014 l 422 779 l 564 794 l 639 794 z "},"‡":{"ha":656,"x_min":17,"x_max":639,"o":"m 17 219 l 17 367 l 92 367 l 250 350 l 261 507 l 250 663 l 92 647 l 17 647 l 17 794 l 92 794 l 242 779 l 225 1014 l 431 1014 l 414 779 l 564 794 l 639 794 l 639 647 l 564 647 l 406 663 l 394 507 l 406 350 l 564 367 l 639 367 l 639 219 l 564 219 l 414 235 l 431 0 l 225 0 l 242 235 l 92 219 l 17 219 z "},"•":{"ha":378,"x_min":33,"x_max":333,"o":"m 312 351 q 305 338 312 351 q 266 311 299 325 q 183 297 233 297 q 101 311 133 297 q 56 351 69 325 q 33 444 33 393 q 38 520 33 496 q 56 571 42 544 q 182 624 83 624 q 311 569 286 624 q 333 476 333 526 q 329 401 333 425 q 312 351 325 378 z "},"…":{"ha":1019,"x_min":63,"x_max":957,"o":"m 248 25 q 243 16 248 25 q 217 -2 239 7 q 157 -11 196 -11 q 95 7 118 -11 q 67 45 72 25 q 63 93 63 65 q 65 137 63 121 q 78 171 68 153 q 161 207 94 207 q 247 171 231 207 q 263 108 263 142 q 260 58 263 74 q 248 25 257 43 m 595 25 q 591 16 595 25 q 565 -2 586 7 q 504 -11 543 -11 q 442 7 465 -11 q 415 45 419 25 q 410 93 410 65 q 413 137 410 121 q 425 171 415 153 q 508 207 442 207 q 594 171 578 207 q 610 108 610 142 q 607 58 610 74 q 595 25 604 43 m 942 25 q 938 16 942 25 q 912 -2 933 7 q 851 -11 890 -11 q 790 7 813 -11 q 762 45 767 25 q 757 93 757 65 q 760 137 757 121 q 772 171 763 153 q 856 207 789 207 q 942 171 925 207 q 957 108 957 142 q 954 58 957 74 q 942 25 951 43 z "},"‰":{"ha":1899,"x_min":47,"x_max":1828,"o":"m 444 -92 l 742 1021 l 860 1021 l 561 -92 l 444 -92 m 1778 65 q 1753 27 1778 65 q 1597 -11 1728 -11 q 1417 65 1467 -11 q 1368 281 1368 140 q 1417 498 1368 421 q 1597 575 1467 575 q 1778 498 1728 575 q 1828 281 1828 421 q 1778 65 1828 140 m 1528 282 q 1528 233 1528 282 q 1542 146 1528 185 q 1598 107 1556 107 q 1654 146 1640 107 q 1668 282 1668 185 q 1654 417 1668 379 q 1598 456 1640 456 q 1542 417 1556 456 q 1528 282 1528 379 m 457 517 q 432 480 457 517 q 276 442 407 442 q 97 517 146 442 q 47 733 47 593 q 97 951 47 874 q 276 1028 146 1028 q 457 951 407 1028 q 507 733 507 874 q 457 517 507 593 m 207 735 q 207 686 207 735 q 221 599 207 638 q 277 560 235 560 q 333 599 319 560 q 347 735 347 638 q 333 870 347 832 q 277 908 319 908 q 221 870 235 908 q 207 735 207 832 m 1222 65 q 1197 27 1222 65 q 1042 -11 1172 -11 q 862 65 911 -11 q 813 281 813 140 q 862 498 813 421 q 1042 575 911 575 q 1222 498 1172 575 q 1272 281 1272 421 q 1222 65 1272 140 m 972 282 q 972 233 972 282 q 986 146 972 185 q 1042 107 1000 107 q 1099 146 1085 107 q 1113 282 1113 185 q 1099 417 1113 379 q 1042 456 1085 456 q 986 417 1000 456 q 972 282 972 379 z "},"‹":{"ha":424,"x_min":31,"x_max":371,"o":"m 371 647 l 213 438 l 371 228 l 281 139 l 31 404 l 31 471 l 281 736 l 371 647 z "},"›":{"ha":424,"x_min":53,"x_max":393,"o":"m 53 228 l 211 438 l 53 647 l 143 736 l 393 471 l 393 404 l 143 139 l 53 228 z "},"⁄":{"ha":393,"x_min":-11,"x_max":404,"o":"m -11 -92 l 286 1021 l 404 1021 l 106 -92 l -11 -92 z "},"€":{"ha":875,"x_min":40,"x_max":842,"o":"m 40 557 l 40 683 l 139 683 q 506 1033 192 1033 q 755 963 672 1033 q 840 764 838 893 l 676 753 q 628 851 676 817 q 502 886 581 886 q 381 834 424 886 q 324 683 339 782 l 582 683 l 582 557 l 314 557 l 314 457 l 582 457 l 582 331 l 324 331 q 381 178 339 231 q 503 126 424 126 q 630 163 582 126 q 678 264 678 199 l 842 253 q 756 51 839 122 q 503 -19 672 -19 q 249 73 335 -19 q 139 331 164 165 l 40 331 l 40 457 l 128 457 l 128 557 l 40 557 z "},"™":{"ha":1396,"x_min":76,"x_max":1264,"o":"m 1264 1014 l 1264 400 l 1118 400 l 1118 813 l 1004 490 l 871 490 l 769 799 l 769 400 l 622 400 l 622 1014 l 835 1014 l 939 678 l 1054 1014 l 1264 1014 m 76 893 l 76 1014 l 521 1014 l 521 893 l 372 893 l 372 400 l 225 400 l 225 893 l 76 893 z "},"Ω":{"ha":1107,"x_min":75,"x_max":1032,"o":"m 843 586 q 783 811 843 739 q 553 883 722 883 q 324 811 385 883 q 264 586 264 739 q 306 406 264 471 q 442 315 347 342 l 442 0 l 106 0 l 106 122 l 281 122 l 281 233 q 75 593 75 335 q 185 922 75 810 q 553 1035 296 1035 q 921 922 810 1035 q 1032 593 1032 810 q 826 233 1032 336 l 826 122 l 1001 122 l 1001 0 l 665 0 l 665 315 q 801 406 760 342 q 843 586 843 471 z "},"∂":{"ha":831,"x_min":50,"x_max":781,"o":"m 781 515 q 682 109 781 238 q 351 -19 583 -19 q 117 49 183 -19 q 50 235 50 118 q 147 585 50 467 q 472 703 244 703 q 594 658 550 703 q 465 957 574 824 l 569 1061 q 781 515 781 839 m 376 118 q 536 195 488 118 q 585 419 585 272 q 449 565 585 565 q 288 488 338 565 q 239 264 239 410 q 376 118 239 118 z "},"∆":{"ha":842,"x_min":-42,"x_max":883,"o":"m 318 1014 l 524 1014 l 883 0 l -42 0 l 318 1014 m 421 806 l 188 122 l 654 122 l 421 806 z "},"∏":{"ha":1056,"x_min":75,"x_max":981,"o":"m 75 892 l 75 1014 l 981 1014 l 981 892 l 889 892 l 889 -240 l 703 -240 l 703 892 l 351 892 l 351 -240 l 165 -240 l 165 892 l 75 892 z "},"∑":{"ha":828,"x_min":54,"x_max":789,"o":"m 54 1014 l 789 1014 l 789 892 l 249 892 l 586 376 l 256 -119 l 789 -119 l 789 -240 l 54 -240 l 54 -119 l 385 376 l 54 892 l 54 1014 z "},"−":{"ha":806,"x_min":119,"x_max":686,"o":"m 119 378 l 119 506 l 686 506 l 686 378 l 119 378 z "},"√":{"ha":793,"x_min":-11,"x_max":874,"o":"m 874 1014 l 874 893 l 682 893 l 415 0 l 210 0 l -11 607 l 176 607 l 306 226 l 531 1014 l 874 1014 z "},"∞":{"ha":842,"x_min":33,"x_max":808,"o":"m 33 442 q 33 517 33 442 q 88 649 33 592 q 255 707 142 707 q 418 632 368 707 q 583 707 467 707 q 754 649 700 707 q 808 442 808 592 q 754 235 808 293 q 586 178 700 178 q 422 253 472 178 q 257 178 372 178 q 88 235 142 178 q 33 442 33 293 m 575 322 q 649 347 625 322 q 672 442 672 372 q 649 536 672 511 q 580 561 625 561 q 513 533 535 561 q 482 453 492 506 l 472 403 q 575 322 501 322 m 368 479 q 330 538 357 514 q 260 561 303 561 q 193 536 217 561 q 169 442 169 511 q 193 347 169 372 q 263 322 217 322 q 329 351 308 322 q 360 433 350 379 l 368 479 z "},"∫":{"ha":661,"x_min":-60,"x_max":733,"o":"m 242 -46 l 242 715 q 313 955 242 876 q 536 1033 383 1033 q 733 982 651 1033 l 679 851 q 560 886 625 886 q 431 715 431 886 l 431 -46 q 360 -285 431 -207 q 138 -362 290 -362 q -60 -311 25 -362 l -6 -181 q 115 -215 46 -215 q 242 -46 242 -215 z "},"≈":{"ha":806,"x_min":119,"x_max":686,"o":"m 119 644 q 231 611 167 611 q 402 641 296 611 q 572 671 508 671 q 686 644 635 671 l 686 517 q 571 546 633 546 q 402 516 508 546 q 233 486 296 486 q 119 517 171 486 l 119 644 m 119 367 q 231 333 167 333 q 402 363 296 333 q 572 393 508 393 q 686 367 635 393 l 686 239 q 571 268 633 268 q 402 238 508 268 q 233 208 296 208 q 119 239 171 208 l 119 367 z "},"≠":{"ha":806,"x_min":117,"x_max":683,"o":"m 117 528 l 117 656 l 394 656 l 493 1021 l 611 1021 l 513 656 l 683 656 l 683 528 l 478 528 l 432 356 l 683 356 l 683 228 l 397 228 l 313 -92 l 196 -92 l 281 228 l 117 228 l 117 356 l 315 356 l 361 528 l 117 528 z "},"≤":{"ha":806,"x_min":119,"x_max":686,"o":"m 124 457 l 124 618 l 682 857 l 682 715 l 240 538 l 682 360 l 682 218 l 124 457 m 119 0 l 119 128 l 686 128 l 686 0 l 119 0 z "},"≥":{"ha":806,"x_min":119,"x_max":686,"o":"m 682 618 l 682 457 l 124 218 l 124 360 l 564 538 l 124 715 l 124 857 l 682 618 m 119 0 l 119 128 l 686 128 l 686 0 l 119 0 z "},"◊":{"ha":772,"x_min":25,"x_max":747,"o":"m 283 1069 l 489 1069 l 747 465 l 489 -139 l 283 -139 l 25 465 l 283 1069 m 386 36 l 560 465 l 386 894 l 213 465 l 386 36 z "},"":{"ha":1260,"x_min":128,"x_max":1132,"o":"m 807 -124 l 775 -122 q 731 -139 756 -122 q 694 -156 707 -156 l 631 -142 q 598 -150 619 -142 q 565 -158 576 -158 q 531 -141 553 -158 q 490 -124 508 -124 l 457 -126 q 411 -103 436 -126 l 386 -76 q 351 -67 369 -68 q 321 -58 333 -65 q 299 -26 308 -50 q 281 5 289 -1 q 254 19 274 11 q 226 39 235 26 q 217 72 219 51 q 208 101 214 92 q 189 119 203 110 q 158 172 158 144 l 163 207 q 145 244 163 219 q 128 281 128 268 q 136 313 128 293 q 144 345 144 333 q 136 375 144 357 q 128 406 128 393 q 145 447 128 418 q 163 488 163 475 l 161 522 q 184 563 161 543 q 210 590 207 583 q 217 619 214 597 q 225 650 219 642 q 252 667 231 658 q 281 682 274 675 q 297 710 288 689 q 316 740 307 732 q 351 753 325 747 q 385 763 378 758 q 414 790 393 767 q 454 815 435 814 l 490 813 q 530 828 508 813 q 567 844 551 844 l 628 828 l 690 844 q 731 827 708 844 q 769 810 753 810 l 808 814 q 849 791 831 814 q 876 763 867 768 q 906 754 885 758 q 937 743 926 750 q 954 717 947 736 q 969 690 961 697 q 1004 669 976 683 q 1038 643 1032 654 q 1045 610 1044 632 q 1049 581 1046 588 q 1076 555 1053 575 q 1100 513 1100 535 l 1099 478 q 1115 434 1099 460 q 1132 396 1132 408 q 1124 365 1132 383 q 1117 338 1117 347 q 1124 308 1117 328 q 1131 276 1132 288 q 1114 248 1131 265 q 1097 211 1097 231 l 1100 167 q 1078 126 1100 144 q 1052 101 1056 108 q 1042 68 1049 94 q 1028 33 1036 42 q 1003 16 1021 24 q 979 1 986 8 q 960 -28 972 -6 q 938 -58 947 -51 q 903 -72 928 -65 q 872 -82 879 -78 q 847 -105 865 -86 q 807 -124 828 -124 m 631 -8 l 676 -18 q 700 -8 685 -18 q 738 6 721 6 l 758 4 q 788 18 775 4 q 805 35 800 32 q 828 42 810 38 q 853 53 846 47 q 870 74 861 58 q 884 95 879 90 q 901 106 889 100 q 919 117 914 111 q 929 143 925 124 q 937 168 933 163 q 956 186 940 174 q 971 218 971 199 l 969 246 q 981 274 969 261 q 994 296 993 288 l 983 340 l 994 379 q 982 410 994 390 q 969 442 969 429 l 971 465 q 954 496 971 482 q 935 515 938 510 q 931 537 932 521 q 926 560 931 553 q 902 578 922 568 q 876 594 882 589 q 865 614 871 600 q 853 633 860 628 q 831 642 846 639 q 808 648 815 644 q 789 668 801 651 q 760 685 776 685 l 732 682 q 704 694 719 682 q 675 707 689 707 l 629 694 l 585 707 q 557 695 574 707 q 526 683 540 683 l 503 685 q 473 667 488 685 q 452 647 458 650 q 428 640 446 643 q 403 631 410 636 q 389 610 396 625 q 376 589 382 594 q 356 578 371 583 q 336 565 342 572 q 331 544 333 560 q 325 522 328 528 q 306 502 322 517 q 289 472 289 488 l 290 450 q 278 418 290 439 q 267 386 267 397 l 278 344 l 267 299 q 278 270 267 288 q 290 242 290 253 l 288 219 q 305 188 288 204 q 325 167 322 172 q 330 147 328 161 q 338 123 332 132 q 357 108 343 114 q 376 98 371 103 q 390 75 382 93 q 406 51 397 57 q 427 46 414 46 q 449 42 440 46 q 473 20 457 38 q 504 3 489 3 l 525 4 q 556 -8 539 4 q 581 -21 572 -19 l 631 -8 m 464 510 q 499 545 464 510 q 631 579 533 579 q 797 510 728 579 q 867 343 867 442 q 797 176 867 244 q 631 107 728 107 q 464 176 533 107 q 394 343 394 244 q 464 510 394 442 m 690 406 l 763 406 l 763 500 l 497 500 l 497 406 l 572 406 l 572 163 l 690 163 l 690 406 z "},"ﬁ":{"ha":957,"x_min":61,"x_max":840,"o":"m 407 931 q 333 849 333 931 l 333 794 l 483 794 l 483 674 l 333 674 l 333 0 l 147 0 l 147 674 l 61 674 l 61 794 l 147 794 l 147 849 q 388 1076 147 1076 q 546 1051 478 1076 l 500 911 q 407 931 453 931 m 640 794 l 826 794 l 826 0 l 640 0 l 640 794 m 733 889 q 629 997 629 889 q 733 1104 629 1104 q 840 997 840 1104 q 733 889 840 889 z "},"ﬂ":{"ha":957,"x_min":61,"x_max":826,"o":"m 407 931 q 333 849 333 931 l 333 794 l 483 794 l 483 674 l 333 674 l 333 0 l 147 0 l 147 674 l 61 674 l 61 794 l 147 794 l 147 849 q 388 1076 147 1076 q 546 1051 478 1076 l 500 911 q 407 931 453 931 m 826 0 l 640 0 l 640 1044 l 826 1069 l 826 0 z "}}}
